<svg xmlns="http://www.w3.org/2000/svg" xmlns:xlink="http://www.w3.org/1999/xlink" width="500" zoomAndPan="magnify" viewBox="0 0 375 374.999991" height="500" preserveAspectRatio="xMidYMid meet" version="1.0"><defs><filter x="0%" y="0%" width="100%" height="100%" id="a013d440d6"><feColorMatrix values="0 0 0 0 1 0 0 0 0 1 0 0 0 0 1 0 0 0 1 0" color-interpolation-filters="sRGB"/></filter><g/><mask id="a5ffd212f7"><g filter="url(#a013d440d6)"><rect x="-37.5" width="450" fill="#000000" y="-37.499999" height="449.999989" fill-opacity="0.69"/></g></mask><clipPath id="550541bcdc"><path d="M 0.695312 1.078125 L 170.304688 1.078125 L 170.304688 170.683594 L 0.695312 170.683594 Z M 0.695312 1.078125 " clip-rule="nonzero"/></clipPath><clipPath id="34a56d003d"><path d="M 85.5 1.078125 C 38.664062 1.078125 0.695312 39.046875 0.695312 85.882812 C 0.695312 132.71875 38.664062 170.683594 85.5 170.683594 C 132.335938 170.683594 170.304688 132.71875 170.304688 85.882812 C 170.304688 39.046875 132.335938 1.078125 85.5 1.078125 Z M 85.5 1.078125 " clip-rule="nonzero"/></clipPath><linearGradient x1="0" gradientTransform="matrix(0.662526, 0, 0, 0.662526, 0.696648, 1.078837)" y1="0" x2="256" gradientUnits="userSpaceOnUse" y2="0" id="f07fe7b19b"><stop stop-opacity="1" stop-color="rgb(36.499023%, 87.799072%, 90.19928%)" offset="0"/><stop stop-opacity="1" stop-color="rgb(36.355591%, 87.568665%, 90.110779%)" offset="0.00390625"/><stop stop-opacity="1" stop-color="rgb(36.213684%, 87.339783%, 90.023804%)" offset="0.0078125"/><stop stop-opacity="1" stop-color="rgb(36.070251%, 87.109375%, 89.936829%)" offset="0.0117188"/><stop stop-opacity="1" stop-color="rgb(35.928345%, 86.880493%, 89.849854%)" offset="0.015625"/><stop stop-opacity="1" stop-color="rgb(35.786438%, 86.650085%, 89.761353%)" offset="0.0195312"/><stop stop-opacity="1" stop-color="rgb(35.644531%, 86.421204%, 89.674377%)" offset="0.0234375"/><stop stop-opacity="1" stop-color="rgb(35.501099%, 86.190796%, 89.585876%)" offset="0.0273438"/><stop stop-opacity="1" stop-color="rgb(35.359192%, 85.961914%, 89.498901%)" offset="0.03125"/><stop stop-opacity="1" stop-color="rgb(35.215759%, 85.731506%, 89.411926%)" offset="0.0351562"/><stop stop-opacity="1" stop-color="rgb(35.073853%, 85.502625%, 89.324951%)" offset="0.0390625"/><stop stop-opacity="1" stop-color="rgb(34.93042%, 85.272217%, 89.23645%)" offset="0.0429688"/><stop stop-opacity="1" stop-color="rgb(34.788513%, 85.043335%, 89.149475%)" offset="0.046875"/><stop stop-opacity="1" stop-color="rgb(34.645081%, 84.812927%, 89.060974%)" offset="0.0507812"/><stop stop-opacity="1" stop-color="rgb(34.503174%, 84.584045%, 88.973999%)" offset="0.0546875"/><stop stop-opacity="1" stop-color="rgb(34.359741%, 84.353638%, 88.885498%)" offset="0.0585938"/><stop stop-opacity="1" stop-color="rgb(34.217834%, 84.124756%, 88.798523%)" offset="0.0625"/><stop stop-opacity="1" stop-color="rgb(34.074402%, 83.894348%, 88.711548%)" offset="0.0664062"/><stop stop-opacity="1" stop-color="rgb(33.932495%, 83.665466%, 88.624573%)" offset="0.0703125"/><stop stop-opacity="1" stop-color="rgb(33.789062%, 83.435059%, 88.536072%)" offset="0.0742188"/><stop stop-opacity="1" stop-color="rgb(33.647156%, 83.206177%, 88.449097%)" offset="0.078125"/><stop stop-opacity="1" stop-color="rgb(33.503723%, 82.975769%, 88.360596%)" offset="0.0820312"/><stop stop-opacity="1" stop-color="rgb(33.361816%, 82.745361%, 88.273621%)" offset="0.0859375"/><stop stop-opacity="1" stop-color="rgb(33.21991%, 82.514954%, 88.186646%)" offset="0.0898438"/><stop stop-opacity="1" stop-color="rgb(33.078003%, 82.286072%, 88.09967%)" offset="0.09375"/><stop stop-opacity="1" stop-color="rgb(32.93457%, 82.055664%, 88.011169%)" offset="0.0976562"/><stop stop-opacity="1" stop-color="rgb(32.792664%, 81.826782%, 87.924194%)" offset="0.101562"/><stop stop-opacity="1" stop-color="rgb(32.649231%, 81.596375%, 87.835693%)" offset="0.105469"/><stop stop-opacity="1" stop-color="rgb(32.507324%, 81.367493%, 87.748718%)" offset="0.109375"/><stop stop-opacity="1" stop-color="rgb(32.363892%, 81.137085%, 87.661743%)" offset="0.113281"/><stop stop-opacity="1" stop-color="rgb(32.221985%, 80.908203%, 87.574768%)" offset="0.117188"/><stop stop-opacity="1" stop-color="rgb(32.078552%, 80.677795%, 87.486267%)" offset="0.121094"/><stop stop-opacity="1" stop-color="rgb(31.936646%, 80.448914%, 87.399292%)" offset="0.125"/><stop stop-opacity="1" stop-color="rgb(31.793213%, 80.218506%, 87.310791%)" offset="0.128906"/><stop stop-opacity="1" stop-color="rgb(31.651306%, 79.989624%, 87.223816%)" offset="0.132812"/><stop stop-opacity="1" stop-color="rgb(31.507874%, 79.759216%, 87.136841%)" offset="0.136719"/><stop stop-opacity="1" stop-color="rgb(31.365967%, 79.530334%, 87.049866%)" offset="0.140625"/><stop stop-opacity="1" stop-color="rgb(31.222534%, 79.299927%, 86.961365%)" offset="0.144531"/><stop stop-opacity="1" stop-color="rgb(31.080627%, 79.071045%, 86.87439%)" offset="0.148438"/><stop stop-opacity="1" stop-color="rgb(30.938721%, 78.840637%, 86.785889%)" offset="0.152344"/><stop stop-opacity="1" stop-color="rgb(30.796814%, 78.611755%, 86.698914%)" offset="0.15625"/><stop stop-opacity="1" stop-color="rgb(30.653381%, 78.381348%, 86.611938%)" offset="0.160156"/><stop stop-opacity="1" stop-color="rgb(30.511475%, 78.152466%, 86.524963%)" offset="0.164062"/><stop stop-opacity="1" stop-color="rgb(30.368042%, 77.922058%, 86.436462%)" offset="0.167969"/><stop stop-opacity="1" stop-color="rgb(30.226135%, 77.693176%, 86.349487%)" offset="0.171875"/><stop stop-opacity="1" stop-color="rgb(30.082703%, 77.462769%, 86.260986%)" offset="0.175781"/><stop stop-opacity="1" stop-color="rgb(29.940796%, 77.233887%, 86.174011%)" offset="0.179688"/><stop stop-opacity="1" stop-color="rgb(29.797363%, 77.003479%, 86.08551%)" offset="0.183594"/><stop stop-opacity="1" stop-color="rgb(29.655457%, 76.774597%, 85.998535%)" offset="0.1875"/><stop stop-opacity="1" stop-color="rgb(29.512024%, 76.544189%, 85.91156%)" offset="0.191406"/><stop stop-opacity="1" stop-color="rgb(29.370117%, 76.315308%, 85.824585%)" offset="0.195312"/><stop stop-opacity="1" stop-color="rgb(29.226685%, 76.0849%, 85.736084%)" offset="0.199219"/><stop stop-opacity="1" stop-color="rgb(29.084778%, 75.856018%, 85.649109%)" offset="0.203125"/><stop stop-opacity="1" stop-color="rgb(28.941345%, 75.62561%, 85.560608%)" offset="0.207031"/><stop stop-opacity="1" stop-color="rgb(28.799438%, 75.396729%, 85.473633%)" offset="0.210938"/><stop stop-opacity="1" stop-color="rgb(28.657532%, 75.166321%, 85.386658%)" offset="0.214844"/><stop stop-opacity="1" stop-color="rgb(28.515625%, 74.937439%, 85.299683%)" offset="0.21875"/><stop stop-opacity="1" stop-color="rgb(28.372192%, 74.707031%, 85.211182%)" offset="0.222656"/><stop stop-opacity="1" stop-color="rgb(28.230286%, 74.476624%, 85.124207%)" offset="0.226562"/><stop stop-opacity="1" stop-color="rgb(28.086853%, 74.246216%, 85.035706%)" offset="0.230469"/><stop stop-opacity="1" stop-color="rgb(27.944946%, 74.017334%, 84.94873%)" offset="0.234375"/><stop stop-opacity="1" stop-color="rgb(27.801514%, 73.786926%, 84.861755%)" offset="0.238281"/><stop stop-opacity="1" stop-color="rgb(27.659607%, 73.558044%, 84.77478%)" offset="0.242188"/><stop stop-opacity="1" stop-color="rgb(27.516174%, 73.327637%, 84.686279%)" offset="0.246094"/><stop stop-opacity="1" stop-color="rgb(27.374268%, 73.098755%, 84.599304%)" offset="0.25"/><stop stop-opacity="1" stop-color="rgb(27.230835%, 72.868347%, 84.510803%)" offset="0.253906"/><stop stop-opacity="1" stop-color="rgb(27.088928%, 72.639465%, 84.423828%)" offset="0.257812"/><stop stop-opacity="1" stop-color="rgb(26.945496%, 72.409058%, 84.336853%)" offset="0.261719"/><stop stop-opacity="1" stop-color="rgb(26.803589%, 72.180176%, 84.249878%)" offset="0.265625"/><stop stop-opacity="1" stop-color="rgb(26.660156%, 71.949768%, 84.161377%)" offset="0.269531"/><stop stop-opacity="1" stop-color="rgb(26.51825%, 71.720886%, 84.074402%)" offset="0.273438"/><stop stop-opacity="1" stop-color="rgb(26.374817%, 71.490479%, 83.985901%)" offset="0.277344"/><stop stop-opacity="1" stop-color="rgb(26.23291%, 71.261597%, 83.898926%)" offset="0.28125"/><stop stop-opacity="1" stop-color="rgb(26.091003%, 71.031189%, 83.811951%)" offset="0.285156"/><stop stop-opacity="1" stop-color="rgb(25.949097%, 70.802307%, 83.724976%)" offset="0.289062"/><stop stop-opacity="1" stop-color="rgb(25.805664%, 70.571899%, 83.636475%)" offset="0.292969"/><stop stop-opacity="1" stop-color="rgb(25.663757%, 70.343018%, 83.5495%)" offset="0.296875"/><stop stop-opacity="1" stop-color="rgb(25.520325%, 70.11261%, 83.460999%)" offset="0.300781"/><stop stop-opacity="1" stop-color="rgb(25.378418%, 69.883728%, 83.374023%)" offset="0.304688"/><stop stop-opacity="1" stop-color="rgb(25.234985%, 69.65332%, 83.285522%)" offset="0.308594"/><stop stop-opacity="1" stop-color="rgb(25.093079%, 69.424438%, 83.198547%)" offset="0.3125"/><stop stop-opacity="1" stop-color="rgb(24.949646%, 69.194031%, 83.111572%)" offset="0.316406"/><stop stop-opacity="1" stop-color="rgb(24.807739%, 68.965149%, 83.024597%)" offset="0.320312"/><stop stop-opacity="1" stop-color="rgb(24.664307%, 68.734741%, 82.936096%)" offset="0.324219"/><stop stop-opacity="1" stop-color="rgb(24.5224%, 68.505859%, 82.849121%)" offset="0.328125"/><stop stop-opacity="1" stop-color="rgb(24.378967%, 68.275452%, 82.76062%)" offset="0.332031"/><stop stop-opacity="1" stop-color="rgb(24.237061%, 68.04657%, 82.673645%)" offset="0.335938"/><stop stop-opacity="1" stop-color="rgb(24.093628%, 67.816162%, 82.58667%)" offset="0.339844"/><stop stop-opacity="1" stop-color="rgb(23.951721%, 67.58728%, 82.499695%)" offset="0.34375"/><stop stop-opacity="1" stop-color="rgb(23.809814%, 67.356873%, 82.411194%)" offset="0.347656"/><stop stop-opacity="1" stop-color="rgb(23.667908%, 67.127991%, 82.324219%)" offset="0.351562"/><stop stop-opacity="1" stop-color="rgb(23.524475%, 66.897583%, 82.235718%)" offset="0.355469"/><stop stop-opacity="1" stop-color="rgb(23.382568%, 66.668701%, 82.148743%)" offset="0.359375"/><stop stop-opacity="1" stop-color="rgb(23.239136%, 66.438293%, 82.061768%)" offset="0.363281"/><stop stop-opacity="1" stop-color="rgb(23.097229%, 66.207886%, 81.974792%)" offset="0.367188"/><stop stop-opacity="1" stop-color="rgb(22.953796%, 65.977478%, 81.886292%)" offset="0.371094"/><stop stop-opacity="1" stop-color="rgb(22.81189%, 65.748596%, 81.799316%)" offset="0.375"/><stop stop-opacity="1" stop-color="rgb(22.668457%, 65.518188%, 81.710815%)" offset="0.378906"/><stop stop-opacity="1" stop-color="rgb(22.52655%, 65.289307%, 81.62384%)" offset="0.382812"/><stop stop-opacity="1" stop-color="rgb(22.383118%, 65.058899%, 81.536865%)" offset="0.386719"/><stop stop-opacity="1" stop-color="rgb(22.241211%, 64.830017%, 81.44989%)" offset="0.390625"/><stop stop-opacity="1" stop-color="rgb(22.097778%, 64.599609%, 81.361389%)" offset="0.394531"/><stop stop-opacity="1" stop-color="rgb(21.955872%, 64.370728%, 81.274414%)" offset="0.398438"/><stop stop-opacity="1" stop-color="rgb(21.812439%, 64.14032%, 81.185913%)" offset="0.402344"/><stop stop-opacity="1" stop-color="rgb(21.670532%, 63.911438%, 81.098938%)" offset="0.40625"/><stop stop-opacity="1" stop-color="rgb(21.528625%, 63.68103%, 81.011963%)" offset="0.410156"/><stop stop-opacity="1" stop-color="rgb(21.386719%, 63.452148%, 80.924988%)" offset="0.414062"/><stop stop-opacity="1" stop-color="rgb(21.243286%, 63.221741%, 80.836487%)" offset="0.417969"/><stop stop-opacity="1" stop-color="rgb(21.101379%, 62.992859%, 80.749512%)" offset="0.421875"/><stop stop-opacity="1" stop-color="rgb(20.957947%, 62.762451%, 80.661011%)" offset="0.425781"/><stop stop-opacity="1" stop-color="rgb(20.81604%, 62.533569%, 80.574036%)" offset="0.429688"/><stop stop-opacity="1" stop-color="rgb(20.672607%, 62.303162%, 80.485535%)" offset="0.433594"/><stop stop-opacity="1" stop-color="rgb(20.530701%, 62.07428%, 80.39856%)" offset="0.4375"/><stop stop-opacity="1" stop-color="rgb(20.387268%, 61.843872%, 80.311584%)" offset="0.441406"/><stop stop-opacity="1" stop-color="rgb(20.245361%, 61.61499%, 80.224609%)" offset="0.445312"/><stop stop-opacity="1" stop-color="rgb(20.101929%, 61.384583%, 80.136108%)" offset="0.449219"/><stop stop-opacity="1" stop-color="rgb(19.960022%, 61.155701%, 80.049133%)" offset="0.453125"/><stop stop-opacity="1" stop-color="rgb(19.816589%, 60.925293%, 79.960632%)" offset="0.457031"/><stop stop-opacity="1" stop-color="rgb(19.674683%, 60.696411%, 79.873657%)" offset="0.460938"/><stop stop-opacity="1" stop-color="rgb(19.53125%, 60.466003%, 79.786682%)" offset="0.464844"/><stop stop-opacity="1" stop-color="rgb(19.389343%, 60.237122%, 79.699707%)" offset="0.46875"/><stop stop-opacity="1" stop-color="rgb(19.245911%, 60.006714%, 79.611206%)" offset="0.472656"/><stop stop-opacity="1" stop-color="rgb(19.104004%, 59.777832%, 79.524231%)" offset="0.476562"/><stop stop-opacity="1" stop-color="rgb(18.962097%, 59.547424%, 79.43573%)" offset="0.480469"/><stop stop-opacity="1" stop-color="rgb(18.82019%, 59.318542%, 79.348755%)" offset="0.484375"/><stop stop-opacity="1" stop-color="rgb(18.676758%, 59.088135%, 79.26178%)" offset="0.488281"/><stop stop-opacity="1" stop-color="rgb(18.534851%, 58.859253%, 79.174805%)" offset="0.492188"/><stop stop-opacity="1" stop-color="rgb(18.391418%, 58.628845%, 79.086304%)" offset="0.496094"/><stop stop-opacity="1" stop-color="rgb(18.249512%, 58.399963%, 78.999329%)" offset="0.5"/><stop stop-opacity="1" stop-color="rgb(18.106079%, 58.169556%, 78.910828%)" offset="0.503906"/><stop stop-opacity="1" stop-color="rgb(17.964172%, 57.939148%, 78.823853%)" offset="0.507812"/><stop stop-opacity="1" stop-color="rgb(17.82074%, 57.70874%, 78.736877%)" offset="0.511719"/><stop stop-opacity="1" stop-color="rgb(17.678833%, 57.479858%, 78.649902%)" offset="0.515625"/><stop stop-opacity="1" stop-color="rgb(17.5354%, 57.249451%, 78.561401%)" offset="0.519531"/><stop stop-opacity="1" stop-color="rgb(17.393494%, 57.020569%, 78.474426%)" offset="0.523438"/><stop stop-opacity="1" stop-color="rgb(17.250061%, 56.790161%, 78.385925%)" offset="0.527344"/><stop stop-opacity="1" stop-color="rgb(17.108154%, 56.561279%, 78.29895%)" offset="0.53125"/><stop stop-opacity="1" stop-color="rgb(16.964722%, 56.330872%, 78.211975%)" offset="0.535156"/><stop stop-opacity="1" stop-color="rgb(16.822815%, 56.10199%, 78.125%)" offset="0.539062"/><stop stop-opacity="1" stop-color="rgb(16.680908%, 55.871582%, 78.036499%)" offset="0.542969"/><stop stop-opacity="1" stop-color="rgb(16.539001%, 55.6427%, 77.949524%)" offset="0.546875"/><stop stop-opacity="1" stop-color="rgb(16.395569%, 55.412292%, 77.861023%)" offset="0.550781"/><stop stop-opacity="1" stop-color="rgb(16.253662%, 55.183411%, 77.774048%)" offset="0.554688"/><stop stop-opacity="1" stop-color="rgb(16.110229%, 54.953003%, 77.685547%)" offset="0.558594"/><stop stop-opacity="1" stop-color="rgb(15.968323%, 54.724121%, 77.598572%)" offset="0.5625"/><stop stop-opacity="1" stop-color="rgb(15.82489%, 54.493713%, 77.511597%)" offset="0.566406"/><stop stop-opacity="1" stop-color="rgb(15.682983%, 54.264832%, 77.424622%)" offset="0.570312"/><stop stop-opacity="1" stop-color="rgb(15.539551%, 54.034424%, 77.336121%)" offset="0.574219"/><stop stop-opacity="1" stop-color="rgb(15.397644%, 53.805542%, 77.249146%)" offset="0.578125"/><stop stop-opacity="1" stop-color="rgb(15.254211%, 53.575134%, 77.160645%)" offset="0.582031"/><stop stop-opacity="1" stop-color="rgb(15.112305%, 53.346252%, 77.073669%)" offset="0.585938"/><stop stop-opacity="1" stop-color="rgb(14.968872%, 53.115845%, 76.986694%)" offset="0.589844"/><stop stop-opacity="1" stop-color="rgb(14.826965%, 52.886963%, 76.899719%)" offset="0.59375"/><stop stop-opacity="1" stop-color="rgb(14.683533%, 52.656555%, 76.811218%)" offset="0.597656"/><stop stop-opacity="1" stop-color="rgb(14.541626%, 52.427673%, 76.724243%)" offset="0.601562"/><stop stop-opacity="1" stop-color="rgb(14.399719%, 52.197266%, 76.635742%)" offset="0.605469"/><stop stop-opacity="1" stop-color="rgb(14.257812%, 51.968384%, 76.548767%)" offset="0.609375"/><stop stop-opacity="1" stop-color="rgb(14.11438%, 51.737976%, 76.461792%)" offset="0.613281"/><stop stop-opacity="1" stop-color="rgb(13.972473%, 51.509094%, 76.374817%)" offset="0.617188"/><stop stop-opacity="1" stop-color="rgb(13.829041%, 51.278687%, 76.286316%)" offset="0.621094"/><stop stop-opacity="1" stop-color="rgb(13.687134%, 51.049805%, 76.199341%)" offset="0.625"/><stop stop-opacity="1" stop-color="rgb(13.543701%, 50.819397%, 76.11084%)" offset="0.628906"/><stop stop-opacity="1" stop-color="rgb(13.401794%, 50.590515%, 76.023865%)" offset="0.632812"/><stop stop-opacity="1" stop-color="rgb(13.258362%, 50.360107%, 75.93689%)" offset="0.636719"/><stop stop-opacity="1" stop-color="rgb(13.116455%, 50.131226%, 75.849915%)" offset="0.640625"/><stop stop-opacity="1" stop-color="rgb(12.973022%, 49.900818%, 75.761414%)" offset="0.644531"/><stop stop-opacity="1" stop-color="rgb(12.831116%, 49.67041%, 75.674438%)" offset="0.648438"/><stop stop-opacity="1" stop-color="rgb(12.687683%, 49.440002%, 75.585938%)" offset="0.652344"/><stop stop-opacity="1" stop-color="rgb(12.545776%, 49.211121%, 75.498962%)" offset="0.65625"/><stop stop-opacity="1" stop-color="rgb(12.402344%, 48.980713%, 75.410461%)" offset="0.660156"/><stop stop-opacity="1" stop-color="rgb(12.260437%, 48.751831%, 75.323486%)" offset="0.664062"/><stop stop-opacity="1" stop-color="rgb(12.117004%, 48.521423%, 75.236511%)" offset="0.667969"/><stop stop-opacity="1" stop-color="rgb(11.975098%, 48.292542%, 75.149536%)" offset="0.671875"/><stop stop-opacity="1" stop-color="rgb(11.833191%, 48.062134%, 75.061035%)" offset="0.675781"/><stop stop-opacity="1" stop-color="rgb(11.691284%, 47.833252%, 74.97406%)" offset="0.679688"/><stop stop-opacity="1" stop-color="rgb(11.547852%, 47.602844%, 74.885559%)" offset="0.683594"/><stop stop-opacity="1" stop-color="rgb(11.405945%, 47.373962%, 74.798584%)" offset="0.6875"/><stop stop-opacity="1" stop-color="rgb(11.262512%, 47.143555%, 74.711609%)" offset="0.691406"/><stop stop-opacity="1" stop-color="rgb(11.120605%, 46.914673%, 74.624634%)" offset="0.695312"/><stop stop-opacity="1" stop-color="rgb(10.977173%, 46.684265%, 74.536133%)" offset="0.699219"/><stop stop-opacity="1" stop-color="rgb(10.835266%, 46.455383%, 74.449158%)" offset="0.703125"/><stop stop-opacity="1" stop-color="rgb(10.691833%, 46.224976%, 74.360657%)" offset="0.707031"/><stop stop-opacity="1" stop-color="rgb(10.549927%, 45.996094%, 74.273682%)" offset="0.710938"/><stop stop-opacity="1" stop-color="rgb(10.406494%, 45.765686%, 74.186707%)" offset="0.714844"/><stop stop-opacity="1" stop-color="rgb(10.264587%, 45.536804%, 74.099731%)" offset="0.71875"/><stop stop-opacity="1" stop-color="rgb(10.121155%, 45.306396%, 74.01123%)" offset="0.722656"/><stop stop-opacity="1" stop-color="rgb(9.979248%, 45.077515%, 73.924255%)" offset="0.726562"/><stop stop-opacity="1" stop-color="rgb(9.835815%, 44.847107%, 73.835754%)" offset="0.730469"/><stop stop-opacity="1" stop-color="rgb(9.693909%, 44.618225%, 73.748779%)" offset="0.734375"/><stop stop-opacity="1" stop-color="rgb(9.552002%, 44.387817%, 73.661804%)" offset="0.738281"/><stop stop-opacity="1" stop-color="rgb(9.410095%, 44.158936%, 73.574829%)" offset="0.742188"/><stop stop-opacity="1" stop-color="rgb(9.266663%, 43.928528%, 73.486328%)" offset="0.746094"/><stop stop-opacity="1" stop-color="rgb(9.124756%, 43.699646%, 73.399353%)" offset="0.75"/><stop stop-opacity="1" stop-color="rgb(8.981323%, 43.469238%, 73.310852%)" offset="0.753906"/><stop stop-opacity="1" stop-color="rgb(8.839417%, 43.240356%, 73.223877%)" offset="0.757812"/><stop stop-opacity="1" stop-color="rgb(8.695984%, 43.009949%, 73.136902%)" offset="0.761719"/><stop stop-opacity="1" stop-color="rgb(8.554077%, 42.781067%, 73.049927%)" offset="0.765625"/><stop stop-opacity="1" stop-color="rgb(8.410645%, 42.550659%, 72.961426%)" offset="0.769531"/><stop stop-opacity="1" stop-color="rgb(8.268738%, 42.321777%, 72.874451%)" offset="0.773438"/><stop stop-opacity="1" stop-color="rgb(8.125305%, 42.09137%, 72.78595%)" offset="0.777344"/><stop stop-opacity="1" stop-color="rgb(7.983398%, 41.862488%, 72.698975%)" offset="0.78125"/><stop stop-opacity="1" stop-color="rgb(7.839966%, 41.63208%, 72.610474%)" offset="0.785156"/><stop stop-opacity="1" stop-color="rgb(7.698059%, 41.401672%, 72.523499%)" offset="0.789062"/><stop stop-opacity="1" stop-color="rgb(7.554626%, 41.171265%, 72.436523%)" offset="0.792969"/><stop stop-opacity="1" stop-color="rgb(7.41272%, 40.942383%, 72.349548%)" offset="0.796875"/><stop stop-opacity="1" stop-color="rgb(7.270813%, 40.711975%, 72.261047%)" offset="0.800781"/><stop stop-opacity="1" stop-color="rgb(7.128906%, 40.483093%, 72.174072%)" offset="0.804688"/><stop stop-opacity="1" stop-color="rgb(6.985474%, 40.252686%, 72.085571%)" offset="0.808594"/><stop stop-opacity="1" stop-color="rgb(6.843567%, 40.023804%, 71.998596%)" offset="0.8125"/><stop stop-opacity="1" stop-color="rgb(6.700134%, 39.793396%, 71.911621%)" offset="0.816406"/><stop stop-opacity="1" stop-color="rgb(6.558228%, 39.564514%, 71.824646%)" offset="0.820312"/><stop stop-opacity="1" stop-color="rgb(6.414795%, 39.334106%, 71.736145%)" offset="0.824219"/><stop stop-opacity="1" stop-color="rgb(6.272888%, 39.105225%, 71.64917%)" offset="0.828125"/><stop stop-opacity="1" stop-color="rgb(6.129456%, 38.874817%, 71.560669%)" offset="0.832031"/><stop stop-opacity="1" stop-color="rgb(5.987549%, 38.645935%, 71.473694%)" offset="0.835938"/><stop stop-opacity="1" stop-color="rgb(5.844116%, 38.415527%, 71.386719%)" offset="0.839844"/><stop stop-opacity="1" stop-color="rgb(5.702209%, 38.186646%, 71.299744%)" offset="0.84375"/><stop stop-opacity="1" stop-color="rgb(5.558777%, 37.956238%, 71.211243%)" offset="0.847656"/><stop stop-opacity="1" stop-color="rgb(5.41687%, 37.727356%, 71.124268%)" offset="0.851562"/><stop stop-opacity="1" stop-color="rgb(5.273438%, 37.496948%, 71.035767%)" offset="0.855469"/><stop stop-opacity="1" stop-color="rgb(5.131531%, 37.268066%, 70.948792%)" offset="0.859375"/><stop stop-opacity="1" stop-color="rgb(4.988098%, 37.037659%, 70.861816%)" offset="0.863281"/><stop stop-opacity="1" stop-color="rgb(4.846191%, 36.808777%, 70.774841%)" offset="0.867188"/><stop stop-opacity="1" stop-color="rgb(4.704285%, 36.578369%, 70.68634%)" offset="0.871094"/><stop stop-opacity="1" stop-color="rgb(4.562378%, 36.349487%, 70.599365%)" offset="0.875"/><stop stop-opacity="1" stop-color="rgb(4.418945%, 36.11908%, 70.510864%)" offset="0.878906"/><stop stop-opacity="1" stop-color="rgb(4.277039%, 35.890198%, 70.423889%)" offset="0.882812"/><stop stop-opacity="1" stop-color="rgb(4.133606%, 35.65979%, 70.336914%)" offset="0.886719"/><stop stop-opacity="1" stop-color="rgb(3.991699%, 35.430908%, 70.249939%)" offset="0.890625"/><stop stop-opacity="1" stop-color="rgb(3.848267%, 35.2005%, 70.161438%)" offset="0.894531"/><stop stop-opacity="1" stop-color="rgb(3.70636%, 34.971619%, 70.074463%)" offset="0.898438"/><stop stop-opacity="1" stop-color="rgb(3.562927%, 34.741211%, 69.985962%)" offset="0.902344"/><stop stop-opacity="1" stop-color="rgb(3.421021%, 34.512329%, 69.898987%)" offset="0.90625"/><stop stop-opacity="1" stop-color="rgb(3.277588%, 34.281921%, 69.810486%)" offset="0.910156"/><stop stop-opacity="1" stop-color="rgb(3.135681%, 34.05304%, 69.723511%)" offset="0.914062"/><stop stop-opacity="1" stop-color="rgb(2.992249%, 33.822632%, 69.636536%)" offset="0.917969"/><stop stop-opacity="1" stop-color="rgb(2.850342%, 33.59375%, 69.549561%)" offset="0.921875"/><stop stop-opacity="1" stop-color="rgb(2.706909%, 33.363342%, 69.46106%)" offset="0.925781"/><stop stop-opacity="1" stop-color="rgb(2.565002%, 33.132935%, 69.374084%)" offset="0.929688"/><stop stop-opacity="1" stop-color="rgb(2.423096%, 32.902527%, 69.285583%)" offset="0.933594"/><stop stop-opacity="1" stop-color="rgb(2.281189%, 32.673645%, 69.198608%)" offset="0.9375"/><stop stop-opacity="1" stop-color="rgb(2.137756%, 32.443237%, 69.111633%)" offset="0.941406"/><stop stop-opacity="1" stop-color="rgb(1.99585%, 32.214355%, 69.024658%)" offset="0.945312"/><stop stop-opacity="1" stop-color="rgb(1.852417%, 31.983948%, 68.936157%)" offset="0.949219"/><stop stop-opacity="1" stop-color="rgb(1.71051%, 31.755066%, 68.849182%)" offset="0.953125"/><stop stop-opacity="1" stop-color="rgb(1.567078%, 31.524658%, 68.760681%)" offset="0.957031"/><stop stop-opacity="1" stop-color="rgb(1.425171%, 31.295776%, 68.673706%)" offset="0.960938"/><stop stop-opacity="1" stop-color="rgb(1.281738%, 31.065369%, 68.586731%)" offset="0.964844"/><stop stop-opacity="1" stop-color="rgb(1.139832%, 30.836487%, 68.499756%)" offset="0.96875"/><stop stop-opacity="1" stop-color="rgb(0.996399%, 30.606079%, 68.411255%)" offset="0.972656"/><stop stop-opacity="1" stop-color="rgb(0.854492%, 30.377197%, 68.32428%)" offset="0.976562"/><stop stop-opacity="1" stop-color="rgb(0.71106%, 30.14679%, 68.235779%)" offset="0.980469"/><stop stop-opacity="1" stop-color="rgb(0.569153%, 29.917908%, 68.148804%)" offset="0.984375"/><stop stop-opacity="1" stop-color="rgb(0.42572%, 29.6875%, 68.061829%)" offset="0.988281"/><stop stop-opacity="1" stop-color="rgb(0.283813%, 29.458618%, 67.974854%)" offset="0.992188"/><stop stop-opacity="1" stop-color="rgb(0.141907%, 29.22821%, 67.886353%)" offset="0.996094"/><stop stop-opacity="1" stop-color="rgb(0%, 28.999329%, 67.799377%)" offset="1"/></linearGradient><clipPath id="2726f691d9"><rect x="0" width="171" y="0" height="171"/></clipPath><clipPath id="2e3bde7ca4"><path d="M 143 58 L 232 58 L 232 181.875 L 143 181.875 Z M 143 58 " clip-rule="nonzero"/></clipPath></defs><g mask="url(#a5ffd212f7)"><g transform="matrix(1, 0, 0, 1, 102, 81)"><g clip-path="url(#2726f691d9)"><g clip-path="url(#550541bcdc)"><g clip-path="url(#34a56d003d)"><path fill="url(#f07fe7b19b)" d="M 0.695312 1.078125 L 0.695312 170.683594 L 170.304688 170.683594 L 170.304688 1.078125 Z M 0.695312 1.078125 " fill-rule="nonzero"/></g></g></g></g></g><path fill="#ffffff" d="M 189.324219 160.390625 C 189.324219 160.386719 189.324219 160.382812 189.320312 160.378906 C 189.324219 160.378906 189.324219 160.378906 189.324219 160.378906 C 189.324219 160.382812 189.324219 160.386719 189.324219 160.390625 Z M 189.324219 160.390625 " fill-opacity="1" fill-rule="nonzero"/><g clip-path="url(#2e3bde7ca4)"><path fill="#ffffff" d="M 145.1875 96.167969 C 146.683594 97.90625 150.664062 99.246094 153.722656 99.246094 L 185.546875 152.117188 C 185.542969 152.132812 185.535156 152.148438 185.527344 152.160156 C 185.535156 152.175781 185.542969 152.191406 185.550781 152.207031 C 185.585938 152.277344 185.597656 152.359375 185.578125 152.433594 C 185.726562 152.828125 185.875 153.222656 186.019531 153.621094 C 186.042969 153.6875 186.050781 153.761719 186.046875 153.832031 C 186.046875 153.847656 186.039062 153.863281 186.027344 153.882812 C 186.03125 153.886719 186.03125 153.894531 186.03125 153.902344 C 186.042969 153.953125 186.042969 154.003906 186.03125 154.046875 C 186.046875 154.046875 186.066406 154.046875 186.082031 154.046875 C 186.117188 154.214844 186.15625 154.410156 186.199219 154.605469 C 186.222656 154.714844 186.222656 154.835938 186.273438 154.929688 C 186.402344 155.160156 186.285156 155.308594 186.140625 155.472656 C 186.050781 155.570312 185.988281 155.695312 185.925781 155.816406 C 185.855469 155.945312 185.851562 156.078125 185.871094 156.230469 C 185.90625 156.5 185.882812 156.773438 185.90625 157.042969 C 185.921875 157.234375 185.980469 157.425781 186.003906 157.617188 C 186.027344 157.765625 186.050781 157.917969 186.03125 158.066406 C 185.996094 158.378906 186.023438 158.433594 186.441406 158.617188 C 186.394531 158.679688 186.351562 158.742188 186.324219 158.777344 C 186.175781 158.757812 186.042969 158.742188 185.914062 158.726562 C 185.726562 158.703125 185.789062 158.929688 185.664062 158.964844 C 185.597656 158.960938 185.519531 158.976562 185.453125 158.957031 C 185.347656 158.925781 185.1875 158.925781 185.21875 158.757812 C 185.257812 158.542969 185.136719 158.429688 184.988281 158.324219 C 184.851562 158.226562 184.742188 158.261719 184.734375 158.429688 C 184.722656 158.664062 184.734375 158.898438 184.757812 159.132812 C 184.765625 159.195312 184.851562 159.25 184.910156 159.320312 C 184.710938 159.597656 184.390625 159.671875 184.09375 159.8125 C 184.042969 159.769531 183.988281 159.730469 183.933594 159.699219 C 183.785156 159.375 183.644531 159.054688 183.503906 158.734375 C 183.472656 158.625 183.4375 158.515625 183.402344 158.410156 C 183.140625 157.621094 182.820312 156.847656 182.457031 156.097656 C 182.394531 155.96875 182.292969 155.90625 182.183594 155.898438 C 182.050781 155.546875 181.902344 155.199219 181.773438 154.84375 C 181.453125 153.964844 181.085938 153.109375 180.671875 152.273438 C 180.363281 151.65625 180.027344 151.0625 179.617188 150.511719 C 179.1875 149.933594 178.703125 149.414062 177.988281 149.183594 C 177.953125 149.171875 177.914062 149.144531 177.878906 149.148438 C 177.625 149.175781 177.460938 149.019531 177.289062 148.878906 C 177.265625 148.859375 177.234375 148.839844 177.207031 148.835938 C 176.960938 148.796875 176.71875 148.691406 176.46875 148.824219 C 176.445312 148.835938 176.40625 148.820312 176.375 148.8125 C 175.796875 148.664062 175.320312 148.875 174.898438 149.238281 C 174.359375 149.695312 174.042969 150.304688 173.789062 150.945312 C 173.507812 151.652344 173.332031 152.386719 173.222656 153.136719 C 173.144531 153.699219 173.082031 154.261719 173.023438 154.824219 C 172.992188 155.117188 172.980469 155.414062 172.960938 155.707031 C 172.9375 156.070312 172.90625 156.4375 172.898438 156.804688 C 172.886719 157.347656 172.875 157.890625 172.898438 158.433594 C 172.925781 159.117188 172.976562 159.800781 173.039062 160.480469 C 173.113281 161.253906 173.195312 162.023438 173.304688 162.792969 C 173.414062 163.558594 173.542969 164.324219 173.695312 165.082031 C 173.882812 166.019531 174.085938 166.957031 174.324219 167.882812 C 174.527344 168.671875 174.78125 169.449219 175.035156 170.222656 C 175.238281 170.832031 175.472656 171.4375 175.707031 172.039062 C 176.074219 172.988281 176.488281 173.921875 177.035156 174.785156 C 177.101562 174.894531 177.136719 175.023438 177.167969 175.148438 C 177.273438 175.539062 177.34375 175.9375 177.476562 176.320312 C 177.535156 176.492188 177.679688 176.660156 177.828125 176.777344 C 178.605469 177.402344 179.414062 177.996094 180.175781 178.636719 C 180.476562 178.886719 180.75 178.863281 181.078125 178.792969 C 182.101562 178.570312 183.128906 178.363281 184.15625 178.144531 C 185.109375 177.945312 186.066406 177.738281 187.019531 177.535156 C 187.203125 177.496094 187.28125 177.378906 187.183594 177.226562 C 187.019531 176.976562 187.011719 176.703125 186.96875 176.425781 C 186.921875 176.09375 186.863281 175.757812 186.8125 175.425781 C 186.808594 175.394531 186.816406 175.363281 186.824219 175.304688 C 186.992188 175.363281 187.140625 175.429688 187.292969 175.464844 C 187.621094 175.542969 187.953125 175.609375 188.285156 175.671875 C 188.414062 175.699219 188.542969 175.707031 188.671875 175.726562 C 189.265625 175.800781 189.800781 175.582031 190.324219 175.367188 C 190.640625 175.238281 190.917969 175.015625 191.210938 174.835938 C 191.25 174.808594 191.292969 174.792969 191.324219 174.757812 C 191.546875 174.523438 191.792969 174.351562 192.144531 174.414062 C 192.214844 174.429688 192.304688 174.335938 192.398438 174.285156 C 192.410156 174.4375 192.425781 174.59375 192.441406 174.753906 C 192.480469 175.179688 192.515625 175.609375 192.558594 176.035156 C 192.601562 176.484375 192.613281 176.9375 192.699219 177.375 C 192.785156 177.824219 192.527344 178.113281 192.324219 178.441406 C 192.292969 178.492188 192.253906 178.535156 192.230469 178.589844 C 192.183594 178.6875 192.125 178.730469 192.007812 178.742188 C 191.769531 178.765625 191.574219 178.90625 191.445312 179.101562 C 191.308594 179.308594 191.390625 179.523438 191.519531 179.703125 C 191.679688 179.933594 191.917969 180.082031 192.15625 180.21875 C 192.433594 180.375 192.707031 180.519531 192.933594 180.75 C 193.171875 180.992188 193.472656 181.175781 193.746094 181.378906 C 193.867188 181.464844 194 181.542969 194.128906 181.621094 C 194.34375 181.746094 194.5625 181.867188 194.824219 181.871094 C 194.878906 181.871094 194.933594 181.9375 194.988281 181.941406 C 195.242188 181.949219 195.484375 182.054688 195.742188 182 C 195.890625 181.96875 196.050781 181.980469 196.195312 181.9375 C 196.28125 181.914062 196.394531 181.835938 196.410156 181.761719 C 196.453125 181.5625 196.578125 181.59375 196.710938 181.605469 C 196.871094 181.617188 197.03125 181.644531 197.191406 181.648438 C 197.328125 181.652344 197.464844 181.640625 197.601562 181.617188 C 197.859375 181.570312 198.054688 181.359375 198.101562 181.105469 C 198.109375 181.058594 198.105469 181.011719 198.09375 180.96875 C 198.070312 180.878906 198.035156 180.789062 198.011719 180.71875 C 197.929688 180.652344 197.851562 180.585938 197.765625 180.515625 C 197.714844 180.402344 197.632812 180.304688 197.523438 180.25 C 197.441406 180.210938 197.363281 180.171875 197.28125 180.132812 C 197.246094 180.019531 197.15625 179.902344 197.042969 179.867188 C 196.90625 179.824219 196.882812 179.703125 196.890625 179.632812 C 196.902344 179.523438 196.84375 179.484375 196.792969 179.421875 C 196.726562 179.335938 196.65625 179.25 196.570312 179.140625 C 196.664062 179.125 196.730469 179.109375 196.796875 179.097656 C 196.746094 178.980469 196.746094 178.980469 196.53125 178.996094 C 196.53125 178.871094 196.605469 178.707031 196.394531 178.671875 C 196.378906 178.671875 196.371094 178.59375 196.375 178.554688 C 196.398438 178.375 196.167969 178.136719 195.988281 178.171875 C 195.949219 178.179688 195.917969 178.234375 195.894531 178.257812 C 195.707031 178.074219 195.800781 177.84375 195.871094 177.628906 C 195.964844 177.335938 196.074219 177.046875 196.207031 176.773438 C 196.496094 176.164062 196.832031 175.578125 197.09375 174.960938 C 197.265625 174.558594 197.339844 174.113281 197.460938 173.6875 C 197.5 173.550781 197.53125 173.402344 197.601562 173.285156 C 197.890625 172.792969 197.964844 172.246094 198.042969 171.699219 C 198.066406 171.527344 197.988281 171.351562 197.894531 171.171875 C 197.753906 170.914062 197.527344 170.820312 197.300781 170.707031 C 197.226562 170.671875 197.101562 170.679688 197.027344 170.71875 C 196.890625 170.792969 196.816406 170.753906 196.695312 170.679688 C 196.605469 170.621094 196.492188 170.597656 196.371094 170.570312 C 196.257812 170.183594 196.050781 169.820312 195.816406 169.496094 C 195.621094 169.230469 195.371094 169 195.078125 168.851562 C 195.074219 168.828125 195.035156 168.8125 194.996094 168.796875 C 194.925781 168.773438 194.859375 168.753906 194.789062 168.738281 C 194.644531 168.695312 194.492188 168.675781 194.332031 168.683594 C 194.203125 168.6875 194.082031 168.714844 193.976562 168.761719 C 193.949219 168.726562 193.921875 168.691406 193.890625 168.660156 C 193.601562 168.347656 193.191406 168.351562 192.800781 168.347656 C 192.710938 168.34375 192.621094 168.359375 192.539062 168.382812 C 192.527344 168.382812 192.511719 168.378906 192.496094 168.378906 C 192.472656 168.375 192.4375 168.371094 192.417969 168.382812 C 192.175781 168.539062 191.949219 168.414062 191.714844 168.355469 C 191.605469 168.328125 191.542969 168.261719 191.53125 168.152344 C 191.496094 167.835938 191.460938 167.519531 191.433594 167.199219 C 191.425781 167.109375 191.398438 167.003906 191.5 166.9375 C 191.511719 166.929688 191.519531 166.898438 191.515625 166.882812 C 191.464844 166.632812 191.632812 166.417969 191.621094 166.171875 C 191.617188 166.117188 191.652344 166.046875 191.695312 166.003906 C 192.136719 165.511719 192.582031 165.023438 193.03125 164.542969 C 193.078125 164.496094 193.183594 164.46875 193.253906 164.480469 C 193.40625 164.503906 193.5 164.425781 193.5625 164.316406 C 193.589844 164.273438 193.566406 164.148438 193.523438 164.121094 C 193.394531 164.035156 193.433594 163.964844 193.511719 163.886719 C 193.566406 163.828125 193.621094 163.765625 193.6875 163.726562 C 194.148438 163.441406 194.230469 163 194.167969 162.511719 C 194.148438 162.367188 194.152344 162.253906 194.277344 162.148438 C 194.425781 162.019531 194.441406 161.832031 194.390625 161.65625 C 194.273438 161.273438 194.160156 160.882812 194.003906 160.515625 C 193.785156 160 193.511719 159.503906 193.292969 158.984375 C 193.191406 158.75 193.148438 158.480469 193.121094 158.222656 C 193.101562 158.050781 193.070312 157.882812 193.015625 157.726562 C 192.996094 157.53125 192.960938 157.339844 192.921875 157.148438 C 192.902344 157.042969 192.878906 156.9375 192.859375 156.832031 C 192.863281 156.828125 192.871094 156.824219 192.875 156.816406 C 192.8125 156.753906 192.78125 156.664062 192.808594 156.578125 C 192.765625 156.378906 192.726562 156.183594 192.6875 155.984375 C 192.609375 155.597656 192.53125 155.210938 192.457031 154.820312 C 192.453125 154.808594 192.449219 154.796875 192.449219 154.785156 C 192.46875 154.769531 192.492188 154.75 192.511719 154.734375 C 192.484375 154.714844 192.457031 154.699219 192.429688 154.683594 C 192.417969 154.636719 192.410156 154.585938 192.398438 154.539062 C 192.402344 154.539062 192.40625 154.535156 192.414062 154.535156 C 192.402344 154.511719 192.394531 154.492188 192.382812 154.46875 C 192.34375 154.292969 192.292969 154.121094 192.203125 153.960938 C 192.203125 153.9375 192.207031 153.910156 192.207031 153.882812 C 192.253906 153.539062 192.300781 153.199219 192.347656 152.855469 C 192.316406 152.824219 192.292969 152.789062 192.277344 152.738281 L 222.027344 95.144531 C 223.453125 96.007812 224.742188 96.382812 226.308594 96.8125 C 229.484375 97.691406 232.6875 97.660156 230.71875 84.8125 C 228.753906 71.960938 214.746094 65.441406 200 61.078125 C 185.25 56.710938 167.039062 58.429688 159.648438 61.558594 C 152.253906 64.6875 146.328125 73.339844 144.324219 80.375 C 142.320312 87.410156 143.078125 93.714844 145.1875 96.167969 Z M 193.230469 159.722656 C 193.246094 159.71875 193.257812 159.714844 193.273438 159.710938 C 193.503906 160.207031 193.738281 160.703125 193.976562 161.214844 C 193.855469 161.242188 193.816406 161.214844 193.789062 161.125 C 193.769531 161.0625 193.707031 161.011719 193.675781 160.953125 C 193.582031 160.792969 193.445312 160.6875 193.289062 160.601562 C 193.269531 160.59375 193.261719 160.558594 193.257812 160.53125 C 193.25 160.261719 193.242188 159.992188 193.230469 159.722656 Z M 194.257812 177.0625 C 194.265625 177.03125 194.265625 176.996094 194.261719 176.964844 C 194.210938 176.484375 194.335938 176.023438 194.445312 175.5625 C 194.464844 176.265625 194.433594 176.964844 194.289062 177.652344 C 194.167969 177.457031 194.195312 177.261719 194.257812 177.0625 Z M 174.476562 74.425781 L 185.855469 150.230469 L 171.09375 78.285156 C 172.179688 76.917969 173.253906 75.664062 174.292969 74.605469 C 174.355469 74.542969 174.414062 74.484375 174.476562 74.425781 Z M 162.441406 90.722656 C 163.238281 89.507812 164.082031 88.214844 164.957031 86.902344 L 185.394531 150.488281 Z M 185.257812 150.609375 L 159.949219 94.484375 C 160.671875 93.417969 161.46875 92.203125 162.324219 90.898438 Z M 165.078125 86.71875 C 165.964844 85.390625 166.878906 84.042969 167.808594 82.71875 L 185.539062 150.382812 Z M 167.9375 82.535156 C 168.9375 81.121094 169.949219 79.742188 170.957031 78.460938 L 185.695312 150.296875 Z M 185.128906 150.75 L 157.464844 97.855469 C 158.085938 97.152344 158.894531 96.035156 159.835938 94.648438 Z M 178.386719 70.898438 L 186.019531 150.183594 L 174.625 74.273438 C 175.945312 72.957031 177.207031 71.839844 178.386719 70.898438 Z M 182.636719 67.945312 L 186.191406 150.15625 L 178.546875 70.769531 C 180.082031 69.554688 181.46875 68.632812 182.636719 67.945312 Z M 182.804688 67.847656 C 183.554688 67.414062 184.210938 67.078125 184.75 66.824219 L 186.890625 95.414062 L 186.363281 150.152344 Z M 186.503906 66.109375 C 186.726562 66.140625 186.953125 66.171875 187.175781 66.210938 L 186.910156 93.382812 L 184.917969 66.746094 C 185.925781 66.28125 186.503906 66.109375 186.503906 66.109375 Z M 218.691406 92.398438 L 192.496094 151.558594 L 215.863281 89.203125 C 216.1875 89.609375 216.484375 89.972656 216.757812 90.289062 C 217.457031 91.101562 218.097656 91.796875 218.691406 92.398438 Z M 209.597656 81.363281 L 192.0625 151.226562 L 206.292969 77.71875 C 207.46875 78.9375 208.574219 80.167969 209.597656 81.363281 Z M 189.554688 66.730469 C 191.070312 67.144531 192.542969 67.703125 193.960938 68.378906 L 191.398438 151.039062 Z M 194.128906 68.460938 C 195.578125 69.164062 196.972656 69.984375 198.316406 70.890625 L 191.570312 151.050781 Z M 191.902344 151.148438 L 202.542969 74.152344 C 203.808594 75.253906 205.011719 76.402344 206.148438 77.570312 Z M 209.734375 81.523438 C 210.839844 82.824219 211.855469 84.082031 212.773438 85.25 L 192.214844 151.320312 Z M 212.902344 85.410156 C 213.988281 86.796875 214.9375 88.042969 215.738281 89.046875 L 192.359375 151.429688 Z M 191.226562 151.046875 L 187.0625 95.410156 L 187.34375 66.238281 C 188.035156 66.355469 188.714844 66.503906 189.382812 66.683594 Z M 202.386719 74.019531 L 191.738281 151.089844 L 198.476562 71 C 199.839844 71.929688 201.144531 72.949219 202.386719 74.019531 Z M 221.882812 95.054688 L 192.621094 151.703125 L 218.820312 92.53125 C 219.976562 93.683594 220.960938 94.472656 221.882812 95.054688 Z M 191.226562 162.394531 C 191.160156 162.160156 191.097656 161.929688 191.144531 161.683594 C 191.183594 161.492188 191.214844 161.296875 191.226562 161.101562 C 191.253906 160.683594 191.246094 160.683594 191.515625 160.472656 C 191.492188 160.316406 191.476562 160.179688 191.449219 160.042969 C 191.441406 159.988281 191.433594 159.917969 191.394531 159.882812 C 191.28125 159.777344 191.296875 159.648438 191.316406 159.519531 C 191.328125 159.449219 191.339844 159.378906 191.351562 159.308594 C 191.382812 159.128906 191.351562 158.945312 191.472656 158.777344 C 191.539062 158.6875 191.5625 158.542969 191.558594 158.421875 C 191.546875 158.144531 191.453125 157.859375 191.699219 157.628906 C 191.71875 157.609375 191.71875 157.570312 191.734375 157.539062 C 191.757812 157.484375 191.777344 157.425781 191.808594 157.378906 C 191.898438 157.238281 192.035156 157.113281 191.890625 156.925781 C 191.875 156.902344 191.878906 156.855469 191.886719 156.820312 C 191.921875 156.570312 191.960938 156.316406 192 156.066406 C 192.027344 156.015625 192.042969 155.960938 192.050781 155.898438 C 192.058594 155.828125 192.0625 155.753906 192.070312 155.679688 C 192.101562 155.519531 192.140625 155.363281 192.179688 155.203125 C 192.234375 155.492188 192.292969 155.78125 192.351562 156.070312 C 192.421875 156.429688 192.496094 156.789062 192.566406 157.148438 C 192.59375 157.28125 192.621094 157.410156 192.640625 157.542969 C 192.640625 157.5625 192.640625 157.582031 192.640625 157.597656 C 192.601562 157.96875 192.597656 158.332031 192.730469 158.6875 C 192.785156 158.835938 192.851562 158.992188 192.859375 159.148438 C 192.886719 159.484375 192.878906 159.828125 192.882812 160.167969 C 192.882812 160.234375 192.871094 160.300781 192.886719 160.363281 C 192.929688 160.511719 192.914062 160.632812 192.808594 160.761719 C 192.730469 160.851562 192.707031 160.984375 192.660156 161.097656 C 192.625 161.1875 192.597656 161.285156 192.546875 161.367188 C 192.339844 161.707031 192.3125 162.0625 192.429688 162.4375 C 192.46875 162.554688 192.511719 162.671875 192.554688 162.785156 C 192.605469 162.933594 192.5625 163.039062 192.421875 163.109375 C 192.359375 163.144531 192.28125 163.183594 192.253906 163.238281 C 192.152344 163.480469 191.972656 163.640625 191.746094 163.761719 C 191.738281 163.765625 191.734375 163.78125 191.722656 163.792969 C 191.558594 163.933594 191.390625 164.078125 191.191406 164.25 C 191.179688 164.082031 191.164062 163.96875 191.160156 163.851562 C 191.15625 163.660156 191.171875 163.472656 191.160156 163.28125 C 191.144531 163.0625 191.109375 162.84375 191.222656 162.632812 C 191.257812 162.570312 191.25 162.46875 191.226562 162.394531 Z M 191 159.421875 C 190.828125 159.355469 190.671875 159.296875 190.507812 159.230469 C 190.699219 158.863281 190.859375 158.476562 190.875 158.050781 C 190.878906 158.023438 190.878906 157.992188 190.878906 157.960938 C 190.878906 157.914062 190.878906 157.867188 190.871094 157.816406 C 190.871094 157.789062 190.867188 157.765625 190.867188 157.738281 C 190.867188 157.6875 190.867188 157.640625 190.867188 157.589844 C 191.007812 157.53125 191.140625 157.355469 191.195312 157.214844 C 191.242188 157.960938 191.050781 158.6875 191 159.421875 Z M 190.863281 154.359375 C 190.886719 154.609375 190.910156 154.855469 190.9375 155.105469 C 190.855469 154.867188 190.828125 154.609375 190.863281 154.359375 Z M 189.207031 160.027344 C 189.28125 159.949219 189.351562 159.875 189.429688 159.8125 C 189.46875 159.777344 189.519531 159.753906 189.570312 159.738281 C 189.652344 159.773438 189.738281 159.785156 189.824219 159.785156 C 189.839844 159.804688 189.855469 159.824219 189.871094 159.839844 C 189.941406 159.914062 190.015625 159.964844 190.128906 159.914062 C 190.253906 159.863281 190.382812 159.792969 190.515625 159.785156 C 190.664062 159.773438 190.839844 159.785156 190.957031 159.859375 C 191.023438 159.902344 191.015625 160.089844 191.015625 160.210938 C 191.015625 160.261719 190.953125 160.316406 190.90625 160.359375 C 190.75 160.507812 190.75 160.582031 190.933594 160.6875 C 191.039062 160.746094 191.0625 160.824219 191.046875 160.929688 C 190.984375 161.308594 190.929688 161.6875 190.855469 162.0625 C 190.746094 162.632812 190.625 163.199219 190.503906 163.761719 C 190.460938 163.957031 190.414062 164.144531 190.371094 164.335938 C 190.304688 164.101562 190.1875 163.871094 190.074219 163.652344 C 190.074219 163.648438 190.074219 163.648438 190.074219 163.648438 C 190.089844 163.605469 190.101562 163.566406 190.089844 163.554688 C 190.015625 163.488281 190.023438 163.429688 190.058594 163.351562 C 190.066406 163.332031 190.042969 163.28125 190.023438 163.265625 C 189.960938 163.222656 189.90625 163.183594 189.980469 163.105469 C 189.996094 163.089844 189.992188 163.023438 189.976562 163.015625 C 189.886719 162.96875 189.882812 162.914062 189.917969 162.828125 C 189.929688 162.792969 189.886719 162.734375 189.867188 162.691406 C 189.863281 162.679688 189.859375 162.671875 189.855469 162.660156 C 189.855469 162.636719 189.855469 162.613281 189.855469 162.585938 C 189.894531 162.535156 189.886719 162.496094 189.863281 162.46875 C 189.886719 162.054688 189.933594 161.628906 189.796875 161.230469 C 189.71875 161.007812 189.613281 160.824219 189.484375 160.636719 C 189.4375 160.566406 189.390625 160.5 189.351562 160.429688 C 189.339844 160.414062 189.332031 160.394531 189.324219 160.375 C 189.324219 160.375 189.320312 160.375 189.320312 160.375 C 189.320312 160.375 189.320312 160.378906 189.324219 160.382812 C 189.324219 160.386719 189.328125 160.390625 189.328125 160.398438 C 189.328125 160.398438 189.324219 160.394531 189.324219 160.390625 C 189.324219 160.394531 189.324219 160.394531 189.324219 160.398438 C 189.324219 160.394531 189.324219 160.394531 189.324219 160.390625 C 189.316406 160.382812 189.3125 160.371094 189.3125 160.363281 C 189.316406 160.367188 189.320312 160.371094 189.320312 160.378906 C 189.320312 160.378906 189.320312 160.375 189.320312 160.375 C 189.320312 160.367188 189.316406 160.363281 189.3125 160.359375 C 189.316406 160.347656 189.316406 160.347656 189.320312 160.367188 C 189.308594 160.238281 189.269531 160.121094 189.207031 160.027344 Z M 182.300781 175.273438 C 182.277344 175.460938 182.203125 175.542969 182.019531 175.574219 C 181.570312 175.648438 181.125 175.746094 180.675781 175.824219 C 180.628906 175.832031 180.558594 175.816406 180.527344 175.78125 C 180.335938 175.605469 180.148438 175.421875 179.964844 175.234375 C 179.921875 175.191406 179.882812 175.121094 179.886719 175.070312 C 179.910156 174.835938 179.953125 174.605469 179.988281 174.375 C 180.0625 173.90625 180.132812 173.4375 180.207031 172.96875 C 180.253906 172.675781 180.304688 172.382812 180.351562 172.105469 C 180.730469 172.539062 181.109375 172.964844 181.488281 173.398438 C 181.453125 173.414062 181.441406 173.417969 181.429688 173.425781 C 181.367188 173.46875 181.308594 173.515625 181.246094 173.558594 C 181.308594 173.589844 181.371094 173.628906 181.441406 173.648438 C 181.519531 173.667969 181.601562 173.675781 181.683594 173.691406 C 181.730469 173.699219 181.777344 173.703125 181.824219 173.707031 C 181.820312 173.652344 181.828125 173.59375 181.808594 173.546875 C 181.769531 173.457031 181.710938 173.378906 181.636719 173.261719 C 181.929688 173.4375 182.183594 173.585938 182.429688 173.742188 C 182.46875 173.765625 182.515625 173.828125 182.511719 173.867188 C 182.445312 174.335938 182.359375 174.800781 182.300781 175.273438 Z M 180.859375 159.195312 C 180.566406 159.167969 180.285156 159.136719 180 159.117188 C 179.679688 159.089844 179.359375 159.074219 179.039062 159.050781 C 178.996094 159.046875 178.953125 159.027344 178.914062 159.007812 C 178.730469 158.914062 178.550781 158.878906 178.351562 158.972656 C 178.296875 159 178.222656 158.996094 178.160156 158.988281 C 177.828125 158.957031 177.5 158.914062 177.167969 158.890625 C 176.945312 158.875 176.722656 158.859375 176.5 158.84375 C 176.269531 158.84375 176.011719 158.824219 175.855469 158.875 C 175.660156 158.941406 175.457031 158.890625 175.304688 158.773438 C 175.226562 158.769531 175.148438 158.765625 175.070312 158.761719 C 174.902344 158.753906 174.851562 158.679688 174.851562 158.535156 C 174.84375 158.1875 174.828125 157.839844 174.839844 157.496094 C 174.855469 156.929688 174.898438 156.371094 174.914062 155.804688 C 174.933594 155.035156 175.046875 154.273438 175.175781 153.511719 C 175.234375 153.152344 175.324219 152.800781 175.40625 152.421875 C 175.5625 152.613281 175.695312 152.769531 175.824219 152.933594 C 176.039062 153.207031 176.246094 153.480469 176.457031 153.757812 C 176.671875 154.015625 176.894531 154.269531 177.105469 154.535156 C 177.121094 154.554688 177.125 154.589844 177.125 154.621094 C 177.132812 154.628906 177.140625 154.632812 177.148438 154.636719 C 177.179688 154.660156 177.210938 154.6875 177.238281 154.710938 C 177.238281 154.710938 177.242188 154.710938 177.242188 154.707031 C 177.253906 154.71875 177.265625 154.726562 177.273438 154.738281 C 177.292969 154.757812 177.308594 154.777344 177.328125 154.800781 C 177.347656 154.824219 177.371094 154.851562 177.390625 154.875 C 177.605469 155.136719 177.824219 155.394531 178.027344 155.664062 C 178.167969 155.855469 178.417969 156.011719 178.328125 156.3125 C 178.363281 156.269531 178.402344 156.222656 178.4375 156.175781 C 178.617188 156.394531 178.785156 156.605469 178.960938 156.824219 C 178.769531 156.828125 178.496094 156.605469 178.324219 156.320312 C 178.0625 156.511719 178.066406 156.511719 178.164062 156.828125 C 178.167969 156.84375 178.171875 156.859375 178.171875 156.871094 C 178.179688 156.875 178.1875 156.878906 178.195312 156.882812 C 178.242188 156.910156 178.28125 156.953125 178.304688 157 C 178.496094 157.1875 178.671875 157.359375 178.847656 157.527344 C 178.957031 157.628906 179.089844 157.632812 179.191406 157.535156 C 179.292969 157.429688 179.273438 157.324219 179.175781 157.222656 C 179.152344 157.199219 179.140625 157.164062 179.113281 157.121094 C 179.253906 157.15625 180.558594 158.714844 180.859375 159.195312 Z M 179.539062 157.015625 C 179.707031 156.996094 179.847656 156.992188 179.976562 156.960938 C 180.109375 156.925781 180.179688 156.9375 180.1875 157.089844 C 180.191406 157.140625 180.242188 157.1875 180.273438 157.238281 C 180.328125 157.320312 180.40625 157.398438 180.441406 157.488281 C 180.578125 157.847656 180.703125 158.210938 180.839844 158.59375 C 180.402344 158.058594 179.976562 157.546875 179.539062 157.015625 Z M 174.875 159.230469 C 174.871094 159.136719 174.90625 159.082031 175.015625 159.09375 C 175.144531 159.101562 175.277344 159.101562 175.40625 159.105469 C 175.40625 159.101562 175.410156 159.09375 175.410156 159.089844 C 175.609375 159.113281 175.808594 159.144531 176.011719 159.160156 C 176.644531 159.203125 177.277344 159.25 177.910156 159.285156 C 178.289062 159.304688 178.289062 159.296875 178.304688 159.6875 C 178.304688 159.722656 178.304688 159.757812 178.316406 159.785156 C 178.355469 159.882812 178.324219 159.914062 178.226562 159.949219 C 178.015625 160.027344 177.8125 160.140625 177.609375 160.234375 C 177.570312 160.25 177.523438 160.257812 177.484375 160.253906 C 177.066406 160.214844 176.652344 160.167969 176.238281 160.125 C 175.863281 160.089844 175.488281 160.054688 175.109375 160.015625 C 174.964844 160 174.878906 159.929688 174.894531 159.757812 C 174.90625 159.582031 174.882812 159.40625 174.875 159.230469 Z M 178.058594 173.644531 C 178.042969 173.582031 178.003906 173.519531 177.964844 173.464844 C 177.933594 173.417969 177.882812 173.378906 177.839844 173.339844 C 177.902344 173.296875 177.960938 173.242188 178.027344 173.214844 C 178.074219 173.199219 178.164062 173.207031 178.179688 173.234375 C 178.265625 173.371094 178.359375 173.515625 178.382812 173.667969 C 178.390625 173.71875 178.203125 173.800781 178.105469 173.867188 C 178.101562 173.871094 178.09375 173.867188 178.054688 173.867188 C 178.058594 173.785156 178.070312 173.710938 178.058594 173.644531 Z M 178.042969 172.285156 C 177.652344 171.425781 177.226562 170.574219 176.875 169.695312 C 176.625 169.0625 176.46875 168.390625 176.273438 167.738281 C 176.234375 167.601562 176.253906 167.472656 176.371094 167.390625 C 176.921875 167.003906 177.472656 166.625 178.03125 166.238281 C 178.050781 166.28125 178.0625 166.308594 178.074219 166.335938 C 178.179688 166.5625 178.289062 166.777344 178.527344 166.910156 C 178.742188 167.027344 178.933594 167.1875 179.132812 167.332031 C 179.398438 167.53125 179.652344 167.75 179.929688 167.929688 C 180.0625 168.015625 180.078125 168.109375 180.054688 168.238281 C 180.011719 168.476562 179.964844 168.710938 179.925781 168.949219 C 179.867188 169.351562 179.753906 169.730469 179.554688 170.09375 C 179.171875 170.792969 178.804688 171.5 178.429688 172.203125 C 178.363281 172.332031 178.289062 172.457031 178.199219 172.617188 C 178.136719 172.484375 178.089844 172.386719 178.042969 172.285156 Z M 178.492188 172.757812 C 178.621094 172.515625 178.746094 172.273438 178.878906 172.03125 C 179.179688 171.480469 179.480469 170.933594 179.757812 170.429688 C 179.78125 170.519531 179.804688 170.65625 179.851562 170.78125 C 179.980469 171.15625 180.046875 171.519531 179.949219 171.925781 C 179.84375 172.371094 179.808594 172.835938 179.738281 173.292969 C 179.6875 173.640625 179.644531 173.988281 179.585938 174.335938 C 179.570312 174.40625 179.5 174.464844 179.457031 174.527344 C 179.398438 174.484375 179.324219 174.453125 179.289062 174.398438 C 179.019531 173.980469 178.765625 173.558594 178.496094 173.144531 C 178.40625 173.007812 178.421875 172.886719 178.492188 172.757812 Z M 176.113281 167.167969 C 176.027344 166.773438 175.953125 166.421875 175.871094 166.042969 C 175.996094 166.089844 176.035156 166.039062 176.0625 165.972656 C 176.066406 165.953125 176.074219 165.933594 176.089844 165.914062 C 176.089844 165.910156 176.09375 165.90625 176.09375 165.902344 C 176.101562 165.894531 176.105469 165.882812 176.113281 165.875 C 176.34375 165.515625 176.636719 164.945312 177.109375 164.925781 C 177.132812 164.925781 177.15625 164.929688 177.175781 164.933594 C 177.195312 164.929688 177.210938 164.925781 177.230469 164.925781 C 177.492188 164.886719 177.710938 164.800781 177.773438 164.5 C 177.785156 164.445312 177.855469 164.402344 177.894531 164.351562 C 177.914062 164.355469 177.929688 164.363281 177.949219 164.367188 C 177.964844 164.484375 178.023438 164.617188 177.984375 164.710938 C 177.855469 165.023438 177.898438 165.304688 178.164062 165.515625 C 178.105469 165.632812 178.074219 165.792969 177.980469 165.871094 C 177.6875 166.105469 177.367188 166.308594 177.027344 166.542969 C 177.027344 166.539062 177.027344 166.535156 177.027344 166.527344 C 176.992188 166.570312 176.949219 166.601562 176.898438 166.617188 C 176.867188 166.679688 176.804688 166.726562 176.710938 166.765625 C 176.675781 166.78125 176.648438 166.8125 176.617188 166.835938 C 176.457031 166.941406 176.300781 167.046875 176.113281 167.167969 Z M 175.902344 163.5 C 175.847656 163.847656 175.769531 164.132812 175.507812 164.347656 C 175.488281 164.28125 175.46875 164.222656 175.457031 164.160156 C 175.390625 163.777344 175.320312 163.390625 175.261719 163.003906 C 175.199219 162.5625 175.140625 162.117188 175.085938 161.667969 C 175.046875 161.320312 175.023438 160.96875 174.976562 160.621094 C 174.9375 160.335938 174.972656 160.285156 175.25 160.324219 C 175.300781 160.332031 175.339844 160.347656 175.367188 160.371094 C 175.414062 160.351562 175.472656 160.347656 175.527344 160.351562 C 175.804688 160.386719 176.078125 160.390625 176.355469 160.398438 C 176.433594 160.398438 176.496094 160.429688 176.539062 160.476562 C 176.589844 160.476562 176.640625 160.480469 176.691406 160.484375 C 176.828125 160.503906 176.980469 160.527344 176.964844 160.734375 C 177.042969 160.5 177.046875 160.496094 177.246094 160.578125 C 176.914062 160.933594 176.871094 161.378906 176.878906 161.824219 C 176.878906 162.035156 176.945312 162.246094 177 162.453125 C 177.035156 162.59375 177.050781 162.679688 176.859375 162.671875 C 176.769531 162.671875 176.675781 162.710938 176.578125 162.730469 C 176.5625 162.6875 176.546875 162.640625 176.535156 162.605469 C 176.472656 162.742188 176.40625 162.875 176.351562 163.011719 C 176.296875 163.15625 176.226562 163.304688 176.207031 163.453125 C 176.183594 163.605469 176.121094 163.675781 175.96875 163.699219 C 175.953125 163.648438 175.9375 163.597656 175.902344 163.5 Z M 180.9375 159.558594 C 181.128906 159.578125 181.214844 159.675781 181.207031 159.863281 C 181.113281 159.871094 181.003906 159.910156 180.925781 159.875 C 180.675781 159.761719 180.417969 159.835938 180.167969 159.839844 C 179.9375 159.84375 179.878906 159.957031 179.929688 160.199219 C 179.9375 160.246094 179.941406 160.296875 179.949219 160.378906 C 179.703125 160.167969 179.457031 160.03125 179.164062 159.992188 C 179.117188 159.988281 179.054688 159.925781 179.046875 159.878906 C 179.019531 159.726562 179.015625 159.570312 179 159.394531 C 179.078125 159.394531 179.125 159.394531 179.167969 159.398438 C 179.757812 159.453125 180.347656 159.507812 180.9375 159.558594 Z M 181.292969 160.117188 C 181.347656 160.335938 181.390625 160.558594 181.4375 160.777344 C 181.304688 160.496094 181.304688 160.5 180.953125 160.511719 C 180.910156 160.515625 180.851562 160.488281 180.824219 160.453125 C 180.746094 160.355469 180.675781 160.242188 180.582031 160.109375 C 180.808594 160.070312 181 160.035156 181.195312 160.011719 C 181.222656 160.007812 181.28125 160.074219 181.292969 160.117188 Z M 182.140625 175.96875 C 182.066406 176.167969 182.011719 176.335938 181.945312 176.496094 C 181.929688 176.527344 181.867188 176.566406 181.835938 176.558594 C 181.550781 176.496094 181.289062 176.382812 181.050781 176.179688 C 181.417969 176.109375 181.761719 176.042969 182.140625 175.96875 Z M 181.210938 178.304688 C 181.246094 178.128906 181.222656 177.957031 181.453125 177.921875 C 181.53125 177.90625 181.597656 177.816406 181.671875 177.765625 C 181.835938 177.660156 181.996094 177.554688 182.160156 177.453125 L 182.195312 177.492188 C 182.164062 177.648438 182.132812 177.808594 182.109375 177.964844 C 182.089844 178.085938 182.023438 178.148438 181.90625 178.171875 C 181.683594 178.214844 181.460938 178.257812 181.210938 178.304688 Z M 178.355469 176.667969 C 178.457031 176.652344 178.539062 176.644531 178.621094 176.632812 C 179.238281 176.519531 179.851562 176.402344 180.464844 176.292969 C 180.523438 176.285156 180.601562 176.296875 180.644531 176.332031 C 180.964844 176.597656 181.339844 176.757812 181.726562 176.921875 C 181.621094 177.132812 181.507812 177.320312 181.304688 177.445312 C 181.140625 177.546875 180.972656 177.589844 180.785156 177.59375 C 180.582031 177.59375 180.476562 177.707031 180.496094 177.878906 C 180.515625 178.050781 180.65625 178.039062 180.796875 178.066406 C 180.78125 178.136719 180.769531 178.183594 180.761719 178.234375 C 180.726562 178.390625 180.644531 178.417969 180.511719 178.320312 C 180.367188 178.210938 180.222656 178.097656 180.078125 177.988281 C 179.65625 177.664062 179.230469 177.34375 178.808594 177.023438 C 178.660156 176.910156 178.515625 176.792969 178.355469 176.667969 Z M 177.664062 174.515625 C 177.902344 174.488281 178.09375 174.394531 178.246094 174.207031 C 178.425781 173.988281 178.628906 174.011719 178.789062 174.238281 C 178.984375 174.515625 179.195312 174.777344 179.394531 175.050781 C 179.429688 175.101562 179.449219 175.183594 179.441406 175.246094 C 179.425781 175.429688 179.382812 175.605469 179.363281 175.789062 C 179.335938 176.015625 179.285156 176.078125 179.054688 176.125 C 178.753906 176.1875 178.457031 176.242188 178.15625 176.300781 C 178.109375 176.308594 178.066406 176.332031 178.023438 176.347656 C 178.023438 176.363281 178.023438 176.378906 178.023438 176.394531 C 178.066406 176.414062 178.113281 176.425781 178.152344 176.449219 C 178.191406 176.46875 178.222656 176.5 178.253906 176.527344 C 177.902344 176.460938 177.796875 176.199219 177.726562 175.890625 C 177.789062 175.890625 177.855469 175.90625 177.886719 175.882812 C 177.972656 175.820312 178.058594 175.746094 178.113281 175.660156 C 178.132812 175.625 178.070312 175.527344 178.03125 175.472656 C 177.867188 175.238281 177.6875 175.015625 177.535156 174.773438 C 177.441406 174.628906 177.496094 174.539062 177.664062 174.515625 Z M 177.171875 173.613281 C 177.261719 173.757812 177.34375 173.898438 177.433594 174.03125 C 177.496094 174.128906 177.519531 174.1875 177.394531 174.261719 C 177.269531 174.34375 177.21875 174.28125 177.164062 174.191406 C 177.113281 174.109375 177.070312 174.023438 177.023438 173.9375 C 176.902344 173.738281 176.921875 173.6875 177.171875 173.613281 Z M 175.007812 167.871094 C 175.246094 167.804688 175.484375 167.738281 175.722656 167.675781 C 175.886719 167.628906 175.957031 167.679688 176.007812 167.84375 C 176.175781 168.378906 176.335938 168.914062 176.519531 169.445312 C 176.902344 170.535156 177.335938 171.605469 177.871094 172.632812 C 177.980469 172.84375 177.867188 173.007812 177.621094 173.015625 C 177.375 173.019531 177.15625 173.074219 176.996094 173.289062 C 176.957031 173.347656 176.863281 173.367188 176.765625 173.417969 C 176.710938 173.351562 176.648438 173.292969 176.617188 173.226562 C 176.394531 172.726562 176.160156 172.230469 175.96875 171.71875 C 175.753906 171.15625 175.472656 170.621094 175.328125 170.023438 C 175.1875 169.425781 174.976562 168.839844 174.796875 168.25 C 174.726562 168.015625 174.769531 167.9375 175.007812 167.871094 Z M 174.480469 166.78125 C 174.707031 166.929688 174.960938 166.871094 175.171875 166.808594 C 175.363281 166.753906 175.558594 166.609375 175.550781 166.335938 C 175.566406 166.339844 175.578125 166.34375 175.59375 166.351562 C 175.664062 166.617188 175.738281 166.886719 175.8125 167.15625 C 175.84375 167.273438 175.777344 167.332031 175.683594 167.359375 C 175.40625 167.433594 175.132812 167.515625 174.851562 167.566406 C 174.773438 167.582031 174.617188 167.519531 174.601562 167.460938 C 174.539062 167.238281 174.515625 167.007812 174.480469 166.78125 Z M 173.429688 160.5625 C 173.421875 160.511719 173.488281 160.441406 173.535156 160.394531 C 173.554688 160.371094 173.625 160.363281 173.640625 160.382812 C 173.71875 160.46875 173.785156 160.566406 173.863281 160.65625 C 173.894531 160.695312 173.9375 160.761719 173.96875 160.757812 C 174.109375 160.734375 174.25 160.695312 174.390625 160.65625 C 174.394531 160.65625 174.386719 160.585938 174.378906 160.546875 C 174.363281 160.480469 174.347656 160.410156 174.328125 160.328125 C 174.570312 160.28125 174.636719 160.324219 174.652344 160.503906 C 174.695312 160.933594 174.726562 161.363281 174.785156 161.789062 C 174.871094 162.445312 174.972656 163.101562 175.074219 163.757812 C 175.121094 164.085938 175.179688 164.410156 175.230469 164.722656 C 174.910156 164.878906 174.777344 165.167969 174.644531 165.433594 C 174.507812 165.707031 174.453125 166.019531 174.351562 166.359375 C 174.285156 166.0625 174.222656 165.804688 174.175781 165.542969 C 174.0625 164.960938 173.949219 164.378906 173.855469 163.796875 C 173.757812 163.210938 173.679688 162.625 173.601562 162.039062 C 173.535156 161.546875 173.476562 161.054688 173.429688 160.5625 Z M 174.3125 159.5 C 174.3125 159.5 174.308594 159.5 174.308594 159.5 C 174.3125 159.410156 174.308594 159.320312 174.316406 159.226562 C 174.324219 159.179688 174.347656 159.132812 174.363281 159.085938 C 174.425781 159.117188 174.542969 159.144531 174.546875 159.183594 C 174.578125 159.398438 174.589844 159.621094 174.578125 159.839844 C 174.578125 159.882812 174.457031 159.921875 174.390625 159.960938 C 174.363281 159.910156 174.316406 159.867188 174.308594 159.816406 C 174.296875 159.710938 174.308594 159.605469 174.3125 159.5 Z M 173.332031 159.359375 C 173.335938 159.195312 173.429688 159.097656 173.550781 159.101562 C 173.703125 159.105469 173.660156 159.21875 173.660156 159.300781 C 173.660156 159.492188 173.65625 159.679688 173.640625 159.871094 C 173.636719 159.933594 173.597656 160.039062 173.558594 160.046875 C 173.445312 160.070312 173.402344 159.984375 173.394531 159.878906 C 173.375 159.695312 173.351562 159.511719 173.332031 159.359375 Z M 174.015625 152.167969 C 174.324219 152.195312 174.628906 152.214844 174.9375 152.234375 C 175.089844 152.242188 175.113281 152.277344 175.082031 152.429688 C 174.980469 152.953125 174.851562 153.472656 174.78125 154 C 174.6875 154.6875 174.621094 155.375 174.574219 156.0625 C 174.535156 156.660156 174.539062 157.257812 174.523438 157.855469 C 174.523438 157.921875 174.523438 157.988281 174.527344 158.054688 C 174.53125 158.222656 174.546875 158.390625 174.542969 158.5625 C 174.539062 158.703125 174.410156 158.796875 174.292969 158.757812 C 174.070312 158.683594 173.855469 158.703125 173.636719 158.785156 C 173.457031 158.855469 173.3125 158.792969 173.308594 158.652344 C 173.300781 158.332031 173.292969 158.011719 173.292969 157.691406 C 173.296875 157.394531 173.308594 157.101562 173.316406 156.804688 C 173.328125 156.34375 173.320312 155.882812 173.355469 155.425781 C 173.402344 154.828125 173.472656 154.230469 173.554688 153.636719 C 173.617188 153.199219 173.714844 152.769531 173.796875 152.332031 C 173.820312 152.210938 173.886719 152.15625 174.015625 152.167969 Z M 176.613281 149.425781 C 176.421875 149.636719 176.226562 149.828125 176.058594 150.042969 C 175.667969 150.546875 175.464844 151.140625 175.273438 151.738281 C 175.234375 151.851562 175.191406 151.90625 175.070312 151.894531 C 174.832031 151.875 174.589844 151.855469 174.347656 151.84375 C 174.21875 151.835938 174.085938 151.847656 173.949219 151.851562 C 173.949219 151.832031 173.945312 151.800781 173.953125 151.769531 C 174.046875 151.5 174.132812 151.226562 174.242188 150.964844 C 174.488281 150.382812 174.777344 149.824219 175.316406 149.457031 C 175.738281 149.167969 176.148438 149.074219 176.613281 149.425781 Z M 178.242188 151.484375 C 178.347656 151.777344 178.453125 152.066406 178.566406 152.355469 C 178.59375 152.421875 178.609375 152.476562 178.601562 152.53125 C 178.660156 152.605469 178.699219 152.691406 178.71875 152.789062 C 178.808594 153.035156 178.890625 153.253906 178.960938 153.472656 C 178.96875 153.507812 178.964844 153.550781 178.949219 153.59375 C 178.984375 153.628906 179.011719 153.667969 179.035156 153.710938 C 179.039062 153.699219 179.042969 153.6875 179.042969 153.675781 C 179.152344 153.96875 179.257812 154.214844 179.332031 154.46875 C 179.480469 154.949219 179.753906 155.390625 179.789062 155.90625 C 179.792969 155.933594 179.828125 155.957031 179.84375 155.984375 C 179.941406 156.1875 180.035156 156.390625 180.128906 156.585938 C 179.875 156.640625 179.664062 156.695312 179.449219 156.730469 C 179.394531 156.738281 179.308594 156.714844 179.273438 156.671875 C 179.058594 156.421875 178.855469 156.15625 178.648438 155.898438 C 178.507812 155.738281 178.363281 155.578125 178.226562 155.414062 C 178.21875 155.398438 178.207031 155.382812 178.195312 155.371094 C 178.140625 155.320312 178.09375 155.265625 178.054688 155.203125 C 178.007812 155.128906 177.976562 155.042969 177.964844 154.957031 C 177.90625 154.945312 177.851562 154.917969 177.800781 154.855469 C 177.636719 154.652344 177.460938 154.464844 177.289062 154.269531 C 177.265625 154.242188 177.257812 154.199219 177.242188 154.164062 C 177.089844 153.980469 176.933594 153.796875 176.78125 153.613281 C 176.65625 153.492188 176.542969 153.363281 176.476562 153.207031 C 176.472656 153.210938 176.472656 153.214844 176.46875 153.21875 C 176.234375 152.929688 176.015625 152.65625 175.800781 152.382812 C 175.78125 152.355469 175.789062 152.308594 175.785156 152.269531 C 175.546875 152.15625 175.511719 152.101562 175.5625 151.917969 C 175.714844 151.371094 175.925781 150.84375 176.242188 150.371094 C 176.390625 150.144531 176.59375 149.953125 176.78125 149.757812 C 176.84375 149.691406 176.933594 149.640625 177.019531 149.742188 C 177.175781 149.925781 177.332031 150.109375 177.496094 150.304688 C 177.664062 150.402344 177.78125 150.570312 177.792969 150.777344 C 177.941406 151.011719 178.09375 151.25 178.242188 151.484375 Z M 179.40625 150.832031 C 179.40625 150.832031 179.40625 150.832031 179.40625 150.835938 C 179.398438 150.824219 179.394531 150.816406 179.390625 150.808594 C 179.394531 150.816406 179.402344 150.824219 179.40625 150.832031 Z M 180.136719 153.582031 C 180.074219 153.574219 180.011719 153.554688 179.949219 153.554688 C 179.792969 153.550781 179.699219 153.480469 179.640625 153.335938 C 179.519531 153.042969 179.394531 152.746094 179.257812 152.460938 C 179.078125 152.085938 178.882812 151.71875 178.703125 151.347656 C 178.542969 151.011719 178.285156 150.734375 178.199219 150.359375 C 178.148438 150.140625 178.042969 149.933594 177.96875 149.722656 C 177.953125 149.683594 177.957031 149.640625 177.953125 149.585938 C 178.09375 149.675781 179.996094 153.175781 180.136719 153.582031 Z M 180.464844 153.460938 C 180.464844 153.46875 180.464844 153.480469 180.464844 153.488281 C 180.4375 153.441406 180.414062 153.390625 180.386719 153.339844 C 180.390625 153.339844 180.390625 153.339844 180.394531 153.339844 C 180.417969 153.378906 180.441406 153.417969 180.464844 153.460938 Z M 182.753906 160.367188 C 182.578125 160.375 182.398438 160.308594 182.238281 160.425781 C 182.21875 160.441406 182.152344 160.429688 182.132812 160.410156 C 182.015625 160.269531 181.871094 160.140625 181.804688 159.976562 C 181.6875 159.699219 181.609375 159.402344 181.535156 159.109375 C 181.453125 158.785156 181.40625 158.453125 181.328125 158.125 C 181.125 157.253906 180.796875 156.421875 180.484375 155.582031 C 180.441406 155.472656 180.40625 155.359375 180.367188 155.25 C 180.210938 154.816406 180.054688 154.382812 179.898438 153.953125 C 179.996094 153.960938 180.085938 153.988281 180.171875 153.976562 C 180.328125 153.960938 180.417969 154.03125 180.484375 154.160156 C 180.671875 154.523438 180.863281 154.890625 181.054688 155.253906 C 181.296875 155.707031 181.542969 156.160156 181.785156 156.613281 C 181.878906 156.789062 181.980469 156.960938 182.078125 157.132812 C 182.203125 157.417969 182.320312 157.707031 182.429688 158 C 182.542969 158.371094 182.628906 158.757812 182.734375 159.132812 C 182.726562 159.136719 182.714844 159.140625 182.707031 159.144531 C 182.636719 159.039062 182.5625 158.9375 182.488281 158.832031 C 182.472656 158.835938 182.453125 158.839844 182.433594 158.84375 C 182.4375 158.898438 182.425781 158.957031 182.445312 159.003906 C 182.507812 159.144531 182.574219 159.289062 182.652344 159.421875 C 182.785156 159.636719 182.925781 159.847656 182.953125 160.113281 C 182.976562 160.304688 182.941406 160.359375 182.753906 160.367188 Z M 183.515625 174.820312 C 183.488281 174.984375 183.402344 175.132812 183.324219 175.332031 C 183.308594 175.1875 183.289062 175.089844 183.285156 174.992188 C 183.277344 174.75 183.269531 174.503906 183.277344 174.257812 C 183.28125 174.207031 183.351562 174.15625 183.390625 174.109375 C 183.4375 174.148438 183.519531 174.1875 183.523438 174.230469 C 183.535156 174.425781 183.546875 174.628906 183.515625 174.820312 Z M 186.273438 175.191406 C 186.382812 175.410156 186.40625 175.636719 186.441406 175.867188 C 186.496094 176.226562 186.542969 176.585938 186.589844 176.949219 C 186.609375 177.105469 186.539062 177.1875 186.378906 177.21875 C 185.703125 177.359375 185.03125 177.503906 184.355469 177.648438 C 183.808594 177.765625 183.261719 177.882812 182.714844 178.011719 C 182.582031 178.042969 182.558594 177.988281 182.574219 177.886719 C 182.601562 177.683594 182.617188 177.480469 182.671875 177.289062 C 182.71875 177.132812 182.792969 176.984375 182.964844 176.902344 C 183.207031 176.789062 183.410156 176.617188 183.546875 176.386719 C 183.660156 176.191406 183.757812 175.984375 183.851562 175.777344 C 183.898438 175.675781 183.933594 175.605469 184.070312 175.597656 C 184.246094 175.585938 184.292969 175.476562 184.222656 175.308594 C 184.203125 175.261719 184.164062 175.222656 184.136719 175.179688 C 184.117188 175.152344 184.09375 175.117188 184.097656 175.089844 C 184.152344 174.820312 184.214844 174.546875 184.285156 174.226562 C 184.503906 174.320312 184.6875 174.394531 184.867188 174.464844 C 184.886719 174.472656 184.917969 174.460938 184.941406 174.457031 C 185.105469 174.425781 185.28125 174.421875 185.433594 174.359375 C 185.699219 174.253906 185.660156 174.585938 185.824219 174.613281 C 185.835938 174.613281 185.84375 174.628906 185.855469 174.636719 C 186.046875 174.78125 186.164062 174.976562 186.273438 175.191406 Z M 186.578125 151.992188 C 186.558594 151.992188 186.535156 151.996094 186.515625 152 L 187.042969 97.441406 L 191.136719 152.136719 C 191.128906 152.136719 191.117188 152.136719 191.109375 152.140625 C 191.109375 152.132812 191.109375 152.125 191.109375 152.121094 C 191.054688 152.128906 191 152.144531 190.949219 152.160156 C 190.941406 152.171875 190.929688 152.183594 190.921875 152.199219 C 190.902344 152.226562 190.878906 152.25 190.855469 152.269531 C 190.855469 152.273438 190.855469 152.273438 190.855469 152.277344 C 190.816406 152.316406 190.78125 152.359375 190.753906 152.414062 C 190.671875 152.585938 190.707031 152.765625 190.726562 152.945312 C 190.742188 153.113281 190.757812 153.285156 190.777344 153.453125 C 190.796875 153.667969 190.816406 153.886719 190.839844 154.105469 C 190.824219 154.152344 190.808594 154.195312 190.792969 154.242188 C 190.695312 154.558594 190.710938 154.851562 190.8125 155.128906 C 190.707031 155.003906 190.597656 154.890625 190.480469 154.789062 C 190.410156 154.726562 190.328125 154.675781 190.246094 154.644531 C 190.203125 154.605469 190.160156 154.570312 190.113281 154.539062 C 189.808594 154.320312 189.449219 154.265625 189.078125 154.253906 C 188.679688 154.246094 188.28125 154.21875 187.890625 154.351562 C 187.761719 154.394531 187.621094 154.421875 187.519531 154.449219 C 187.503906 154.378906 187.492188 154.308594 187.476562 154.246094 C 187.445312 154.226562 187.414062 154.203125 187.386719 154.167969 C 187.113281 153.8125 186.945312 153.371094 186.8125 152.949219 C 186.710938 152.636719 186.628906 152.316406 186.578125 151.992188 Z M 153.921875 99.246094 C 155.09375 99.222656 156.113281 99 156.785156 98.511719 C 156.945312 98.394531 157.132812 98.21875 157.34375 97.992188 L 185.015625 150.898438 Z M 153.921875 99.246094 " fill-opacity="1" fill-rule="nonzero"/></g><g fill="#ffffff" fill-opacity="1"><g transform="translate(29.488143, 259.039923)"><g><path d="M 2.5 0 L 4.65625 0 L 4.65625 -17.15625 L 2.5 -17.15625 Z M 2.5 0 "/></g></g></g><g fill="#ffffff" fill-opacity="1"><g transform="translate(36.643599, 259.039923)"><g><path d="M 2.5 0 L 4.632812 0 L 4.632812 -13.429688 L 14.117188 0 L 16.125 0 L 16.125 -17.15625 L 14.019531 -17.15625 L 14.019531 -3.726562 L 4.535156 -17.15625 L 2.5 -17.15625 Z M 2.5 0 "/></g></g></g><g fill="#ffffff" fill-opacity="1"><g transform="translate(55.267387, 259.039923)"><g><path d="M 6.640625 0 L 8.796875 0 L 8.796875 -15.097656 L 14.582031 -15.097656 L 14.582031 -17.15625 L 0.832031 -17.15625 L 0.832031 -15.097656 L 6.640625 -15.097656 Z M 6.640625 0 "/></g></g></g><g fill="#ffffff" fill-opacity="1"><g transform="translate(70.705527, 259.039923)"><g><path d="M 2.5 0 L 13.1875 0 L 13.1875 -2.007812 L 4.65625 -2.007812 L 4.65625 -7.746094 L 12.304688 -7.746094 L 12.304688 -9.730469 L 4.65625 -9.730469 L 4.65625 -15.144531 L 12.914062 -15.144531 L 12.914062 -17.15625 L 2.5 -17.15625 Z M 2.5 0 "/></g></g></g><g fill="#ffffff" fill-opacity="1"><g transform="translate(85.482022, 259.039923)"><g><path d="M 2.5 0 L 4.65625 0 L 4.65625 -6.152344 L 8.429688 -6.152344 L 12.621094 0 L 15.21875 0 L 10.90625 -6.371094 C 13.40625 -6.984375 14.949219 -8.871094 14.949219 -11.640625 C 14.949219 -15.046875 12.597656 -17.15625 9.042969 -17.15625 L 2.5 -17.15625 Z M 4.65625 -8.210938 L 4.65625 -15.097656 L 8.796875 -15.097656 C 11.296875 -15.097656 12.746094 -13.824219 12.746094 -11.640625 C 12.746094 -9.460938 11.296875 -8.210938 8.796875 -8.210938 Z M 4.65625 -8.210938 "/></g></g></g><g fill="#ffffff" fill-opacity="1"><g transform="translate(102.169904, 259.039923)"><g><path d="M 2.5 0 L 4.632812 0 L 4.632812 -13.429688 L 14.117188 0 L 16.125 0 L 16.125 -17.15625 L 14.019531 -17.15625 L 14.019531 -3.726562 L 4.535156 -17.15625 L 2.5 -17.15625 Z M 2.5 0 "/></g></g></g><g fill="#ffffff" fill-opacity="1"><g transform="translate(120.793692, 259.039923)"><g><path d="M 0.417969 0 L 2.71875 0 L 4.289062 -3.898438 L 12.644531 -3.898438 L 14.265625 0 L 16.542969 0 L 9.484375 -17.15625 L 7.476562 -17.15625 Z M 5.121094 -5.90625 L 8.480469 -14.140625 L 11.835938 -5.90625 Z M 5.121094 -5.90625 "/></g></g></g><g fill="#ffffff" fill-opacity="1"><g transform="translate(137.751138, 259.039923)"><g><path d="M 6.640625 0 L 8.796875 0 L 8.796875 -15.097656 L 14.582031 -15.097656 L 14.582031 -17.15625 L 0.832031 -17.15625 L 0.832031 -15.097656 L 6.640625 -15.097656 Z M 6.640625 0 "/></g></g></g><g fill="#ffffff" fill-opacity="1"><g transform="translate(153.189278, 259.039923)"><g><path d="M 2.5 0 L 4.65625 0 L 4.65625 -17.15625 L 2.5 -17.15625 Z M 2.5 0 "/></g></g></g><g fill="#ffffff" fill-opacity="1"><g transform="translate(160.344734, 259.039923)"><g><path d="M 10.292969 0.320312 C 15.515625 0.320312 19.191406 -3.359375 19.191406 -8.578125 C 19.191406 -13.796875 15.515625 -17.472656 10.292969 -17.472656 C 5.074219 -17.472656 1.421875 -13.796875 1.421875 -8.578125 C 1.421875 -3.359375 5.074219 0.320312 10.292969 0.320312 Z M 3.628906 -8.578125 C 3.628906 -12.574219 6.347656 -15.316406 10.292969 -15.316406 C 14.238281 -15.316406 16.960938 -12.574219 16.960938 -8.578125 C 16.960938 -4.582031 14.238281 -1.839844 10.292969 -1.839844 C 6.347656 -1.839844 3.628906 -4.582031 3.628906 -8.578125 Z M 3.628906 -8.578125 "/></g></g></g><g fill="#ffffff" fill-opacity="1"><g transform="translate(180.92892, 259.039923)"><g><path d="M 2.5 0 L 4.632812 0 L 4.632812 -13.429688 L 14.117188 0 L 16.125 0 L 16.125 -17.15625 L 14.019531 -17.15625 L 14.019531 -3.726562 L 4.535156 -17.15625 L 2.5 -17.15625 Z M 2.5 0 "/></g></g></g><g fill="#ffffff" fill-opacity="1"><g transform="translate(199.552708, 259.039923)"><g><path d="M 0.417969 0 L 2.71875 0 L 4.289062 -3.898438 L 12.644531 -3.898438 L 14.265625 0 L 16.542969 0 L 9.484375 -17.15625 L 7.476562 -17.15625 Z M 5.121094 -5.90625 L 8.480469 -14.140625 L 11.835938 -5.90625 Z M 5.121094 -5.90625 "/></g></g></g><g fill="#ffffff" fill-opacity="1"><g transform="translate(216.510154, 259.039923)"><g><path d="M 2.5 0 L 12.988281 0 L 12.988281 -2.058594 L 4.65625 -2.058594 L 4.65625 -17.15625 L 2.5 -17.15625 Z M 2.5 0 "/></g></g></g><g fill="#ffffff" fill-opacity="1"><g transform="translate(230.257445, 259.039923)"><g/></g></g><g fill="#ffffff" fill-opacity="1"><g transform="translate(236.334686, 259.039923)"><g><path d="M 0.417969 0 L 2.71875 0 L 4.289062 -3.898438 L 12.644531 -3.898438 L 14.265625 0 L 16.542969 0 L 9.484375 -17.15625 L 7.476562 -17.15625 Z M 5.121094 -5.90625 L 8.480469 -14.140625 L 11.835938 -5.90625 Z M 5.121094 -5.90625 "/></g></g></g><g fill="#ffffff" fill-opacity="1"><g transform="translate(253.292132, 259.039923)"><g><path d="M 2.5 0 L 4.65625 0 L 4.65625 -17.15625 L 2.5 -17.15625 Z M 2.5 0 "/></g></g></g><g fill="#ffffff" fill-opacity="1"><g transform="translate(260.447589, 259.039923)"><g><path d="M 2.5 0 L 4.65625 0 L 4.65625 -6.152344 L 8.429688 -6.152344 L 12.621094 0 L 15.21875 0 L 10.90625 -6.371094 C 13.40625 -6.984375 14.949219 -8.871094 14.949219 -11.640625 C 14.949219 -15.046875 12.597656 -17.15625 9.042969 -17.15625 L 2.5 -17.15625 Z M 4.65625 -8.210938 L 4.65625 -15.097656 L 8.796875 -15.097656 C 11.296875 -15.097656 12.746094 -13.824219 12.746094 -11.640625 C 12.746094 -9.460938 11.296875 -8.210938 8.796875 -8.210938 Z M 4.65625 -8.210938 "/></g></g></g><g fill="#ffffff" fill-opacity="1"><g transform="translate(277.13547, 259.039923)"><g><path d="M 2.5 0 L 4.65625 0 L 4.65625 -5.636719 L 8.308594 -5.636719 C 12.179688 -5.636719 14.679688 -7.867188 14.679688 -11.394531 C 14.679688 -14.902344 12.179688 -17.15625 8.308594 -17.15625 L 2.5 -17.15625 Z M 4.65625 -7.648438 L 4.65625 -15.097656 L 8.257812 -15.097656 C 11.027344 -15.097656 12.476562 -13.824219 12.476562 -11.371094 C 12.476562 -8.921875 11.027344 -7.648438 8.257812 -7.648438 Z M 4.65625 -7.648438 "/></g></g></g><g fill="#ffffff" fill-opacity="1"><g transform="translate(292.794163, 259.039923)"><g><path d="M 10.292969 0.320312 C 15.515625 0.320312 19.191406 -3.359375 19.191406 -8.578125 C 19.191406 -13.796875 15.515625 -17.472656 10.292969 -17.472656 C 5.074219 -17.472656 1.421875 -13.796875 1.421875 -8.578125 C 1.421875 -3.359375 5.074219 0.320312 10.292969 0.320312 Z M 3.628906 -8.578125 C 3.628906 -12.574219 6.347656 -15.316406 10.292969 -15.316406 C 14.238281 -15.316406 16.960938 -12.574219 16.960938 -8.578125 C 16.960938 -4.582031 14.238281 -1.839844 10.292969 -1.839844 C 6.347656 -1.839844 3.628906 -4.582031 3.628906 -8.578125 Z M 3.628906 -8.578125 "/></g></g></g><g fill="#ffffff" fill-opacity="1"><g transform="translate(313.378349, 259.039923)"><g><path d="M 2.5 0 L 4.65625 0 L 4.65625 -6.152344 L 8.429688 -6.152344 L 12.621094 0 L 15.21875 0 L 10.90625 -6.371094 C 13.40625 -6.984375 14.949219 -8.871094 14.949219 -11.640625 C 14.949219 -15.046875 12.597656 -17.15625 9.042969 -17.15625 L 2.5 -17.15625 Z M 4.65625 -8.210938 L 4.65625 -15.097656 L 8.796875 -15.097656 C 11.296875 -15.097656 12.746094 -13.824219 12.746094 -11.640625 C 12.746094 -9.460938 11.296875 -8.210938 8.796875 -8.210938 Z M 4.65625 -8.210938 "/></g></g></g><g fill="#ffffff" fill-opacity="1"><g transform="translate(330.06623, 259.039923)"><g><path d="M 6.640625 0 L 8.796875 0 L 8.796875 -15.097656 L 14.582031 -15.097656 L 14.582031 -17.15625 L 0.832031 -17.15625 L 0.832031 -15.097656 L 6.640625 -15.097656 Z M 6.640625 0 "/></g></g></g><g fill="#ffffff" fill-opacity="1"><g transform="translate(86.840735, 227.504635)"><g><path d="M 22.585938 0 C 23.117188 0 23.554688 -0.441406 23.46875 -0.96875 C 23.335938 -2.15625 23.117188 -4.492188 23.117188 -7.617188 C 23.117188 -10.917969 21.441406 -12.855469 19.195312 -13.957031 C 18.933594 -14.089844 18.933594 -14.441406 19.195312 -14.574219 C 21.617188 -15.851562 23.335938 -18.097656 23.335938 -21.53125 C 23.335938 -29.101562 18.40625 -30.777344 12.636719 -30.777344 L 9.070312 -30.777344 L 9.070312 -30.820312 L 3.039062 -30.820312 C 2.554688 -30.820312 2.15625 -30.378906 2.203125 -29.894531 C 2.246094 -28.003906 2.378906 -23.070312 2.378906 -15.410156 C 2.378906 -7.75 2.246094 -2.773438 2.203125 -0.878906 C 2.15625 -0.394531 2.554688 0 3.039062 0 L 8.191406 0 C 8.671875 0 9.070312 -0.394531 9.027344 -0.878906 C 8.980469 -2.378906 8.894531 -5.8125 8.851562 -10.964844 C 8.851562 -11.449219 9.246094 -11.84375 9.730469 -11.84375 L 12.460938 -11.84375 C 15.367188 -11.84375 16.160156 -9.597656 16.160156 -7.660156 L 16.160156 -0.835938 C 16.160156 -0.351562 16.554688 0 17.039062 0 Z M 12.722656 -26.152344 C 14.089844 -26.152344 16.421875 -25.097656 16.421875 -21.53125 C 16.421875 -19.550781 15.628906 -16.511719 12.722656 -16.511719 L 9.730469 -16.511719 C 9.246094 -16.511719 8.851562 -16.90625 8.851562 -17.390625 C 8.851562 -20.5625 8.894531 -23.203125 8.9375 -25.273438 C 8.9375 -25.757812 9.335938 -26.152344 9.820312 -26.152344 Z M 12.722656 -26.152344 "/></g></g></g><g fill="#ffffff" fill-opacity="1"><g transform="translate(112.553007, 227.504635)"><g><path d="M 22.191406 -26.988281 L 22.191406 -29.941406 C 22.191406 -30.425781 21.792969 -30.777344 21.308594 -30.777344 L 3.039062 -30.777344 C 2.554688 -30.777344 2.15625 -30.378906 2.203125 -29.894531 C 2.246094 -28.003906 2.378906 -23.070312 2.378906 -15.410156 C 2.378906 -7.75 2.246094 -2.773438 2.203125 -0.878906 C 2.15625 -0.394531 2.554688 0.0429688 3.039062 0.0429688 L 21.308594 0.0429688 C 21.792969 0.0429688 22.191406 -0.351562 22.191406 -0.835938 L 22.191406 -3.785156 C 22.191406 -4.269531 21.792969 -4.625 21.308594 -4.625 L 9.773438 -4.625 C 9.335938 -4.625 8.9375 -5.019531 8.9375 -5.503906 C 8.894531 -7.308594 8.851562 -9.511719 8.851562 -12.195312 C 8.851562 -12.679688 9.246094 -13.078125 9.730469 -13.078125 L 18.976562 -13.078125 C 19.460938 -13.078125 19.855469 -13.429688 19.855469 -13.914062 L 19.855469 -16.863281 C 19.855469 -17.347656 19.460938 -17.699219 18.976562 -17.699219 L 9.730469 -17.699219 C 9.246094 -17.699219 8.851562 -18.097656 8.851562 -18.582031 C 8.851562 -21.265625 8.894531 -23.46875 8.9375 -25.273438 C 8.9375 -25.757812 9.335938 -26.152344 9.773438 -26.152344 L 21.308594 -26.152344 C 21.792969 -26.152344 22.191406 -26.503906 22.191406 -26.988281 Z M 22.191406 -26.988281 "/></g></g></g><g fill="#ffffff" fill-opacity="1"><g transform="translate(136.988475, 227.504635)"><g><path d="M 19.945312 -21.398438 C 21.664062 -25.316406 22.984375 -28.089844 23.730469 -29.542969 C 23.996094 -30.117188 23.554688 -30.777344 22.9375 -30.777344 L 18.050781 -30.777344 C 17.65625 -30.777344 17.304688 -30.554688 17.214844 -30.160156 C 16.863281 -28.972656 15.894531 -25.976562 14.265625 -21.398438 C 13.871094 -20.386719 13.515625 -19.417969 13.207031 -18.582031 C 13.121094 -18.273438 12.679688 -18.273438 12.546875 -18.582031 C 12.238281 -19.417969 11.886719 -20.386719 11.492188 -21.398438 C 9.863281 -25.976562 8.894531 -28.972656 8.542969 -30.160156 C 8.453125 -30.554688 8.101562 -30.777344 7.707031 -30.777344 L 2.816406 -30.777344 C 2.203125 -30.777344 1.761719 -30.117188 2.070312 -29.542969 C 2.773438 -28.089844 4.09375 -25.316406 5.8125 -21.398438 C 7.574219 -17.390625 8.71875 -14.617188 9.246094 -13.164062 C 9.421875 -12.722656 9.511719 -12.285156 9.554688 -11.800781 C 9.597656 -10.65625 9.640625 -9.027344 9.640625 -6.957031 C 9.640625 -4.050781 9.554688 -1.980469 9.464844 -0.878906 C 9.464844 -0.394531 9.863281 0 10.347656 0 L 15.410156 0 C 15.894531 0 16.289062 -0.394531 16.289062 -0.878906 C 16.203125 -1.980469 16.113281 -4.050781 16.113281 -6.957031 C 16.113281 -9.027344 16.160156 -10.65625 16.203125 -11.800781 C 16.246094 -12.285156 16.335938 -12.722656 16.511719 -13.164062 C 17.082031 -14.617188 18.183594 -17.390625 19.945312 -21.398438 Z M 19.945312 -21.398438 "/></g></g></g><g fill="#ffffff" fill-opacity="1"><g transform="translate(162.832834, 227.504635)"><g><path d="M 23.863281 -15.410156 C 23.863281 -23.070312 24.039062 -28.003906 24.085938 -29.894531 C 24.128906 -30.378906 23.730469 -30.820312 23.203125 -30.820312 L 18.097656 -30.820312 C 17.613281 -30.820312 17.214844 -30.378906 17.214844 -29.894531 C 17.304688 -28.003906 17.4375 -23.070312 17.4375 -15.410156 C 17.4375 -13.164062 17.4375 -11.140625 17.390625 -9.378906 C 17.390625 -8.9375 16.773438 -8.851562 16.6875 -9.289062 C 16.335938 -11.09375 15.984375 -13.121094 15.585938 -15.410156 C 14.175781 -23.246094 13.429688 -28.265625 13.164062 -30.070312 C 13.121094 -30.46875 12.722656 -30.777344 12.328125 -30.777344 L 9.070312 -30.777344 L 9.070312 -30.820312 L 3.039062 -30.820312 C 2.554688 -30.820312 2.15625 -30.378906 2.203125 -29.894531 C 2.246094 -28.003906 2.378906 -23.070312 2.378906 -15.410156 C 2.378906 -7.75 2.246094 -2.773438 2.203125 -0.878906 C 2.15625 -0.394531 2.554688 0 3.039062 0 L 8.191406 0 C 8.671875 0 9.070312 -0.394531 9.027344 -0.878906 C 8.980469 -2.773438 8.851562 -7.75 8.851562 -15.410156 C 8.851562 -17.65625 8.851562 -19.636719 8.851562 -21.398438 C 8.894531 -21.839844 9.511719 -21.925781 9.597656 -21.488281 C 9.90625 -19.679688 10.304688 -17.65625 10.699219 -15.410156 C 12.109375 -7.527344 12.855469 -2.507812 13.121094 -0.703125 C 13.164062 -0.308594 13.515625 0 13.957031 0 L 23.203125 0 C 23.730469 0 24.128906 -0.394531 24.085938 -0.878906 C 24.039062 -2.773438 23.863281 -7.75 23.863281 -15.410156 Z M 23.863281 -15.410156 "/></g></g></g><g fill="#ffffff" fill-opacity="1"><g transform="translate(189.161501, 227.504635)"><g><path d="M 23.644531 -21.53125 C 23.644531 -26.328125 21.003906 -31.171875 12.902344 -31.171875 C 4.976562 -31.171875 2.203125 -27.121094 2.203125 -21.53125 C 2.203125 -19.636719 2.378906 -18.40625 2.378906 -15.367188 C 2.378906 -12.371094 2.203125 -11.140625 2.203125 -9.246094 C 2.203125 -4.402344 4.84375 0.394531 12.902344 0.394531 C 20.871094 0.394531 23.644531 -3.65625 23.644531 -9.246094 C 23.644531 -11.140625 23.421875 -12.371094 23.421875 -15.367188 C 23.421875 -18.40625 23.644531 -19.636719 23.644531 -21.53125 Z M 12.8125 -4.269531 C 9.15625 -4.269531 9.113281 -8.191406 9.113281 -9.246094 L 9.113281 -21.53125 C 9.113281 -23.730469 9.511719 -26.503906 12.988281 -26.503906 C 16.644531 -26.503906 16.6875 -22.585938 16.6875 -21.53125 L 16.6875 -9.246094 C 16.6875 -7.042969 16.335938 -4.269531 12.8125 -4.269531 Z M 12.8125 -4.269531 "/></g></g></g><g fill="#ffffff" fill-opacity="1"><g transform="translate(215.049889, 227.504635)"><g><path d="M 8.71875 -5.503906 C 8.804688 -15.542969 9.027344 -26.726562 9.113281 -29.894531 C 9.113281 -30.378906 8.71875 -30.777344 8.234375 -30.777344 L 3.039062 -30.777344 C 2.554688 -30.777344 2.203125 -30.425781 2.203125 -29.941406 L 2.203125 -0.835938 C 2.203125 -0.351562 2.554688 0 3.039062 0 L 18.183594 0 C 18.667969 0 19.019531 -0.351562 19.019531 -0.835938 L 19.019531 -3.785156 C 19.019531 -4.269531 18.667969 -4.625 18.183594 -4.625 L 9.597656 -4.625 C 9.113281 -4.625 8.71875 -5.019531 8.71875 -5.503906 Z M 8.71875 -5.503906 "/></g></g></g><g fill="#ffffff" fill-opacity="1"><g transform="translate(236.095208, 227.504635)"><g><path d="M 23.601562 -21.132812 C 23.601562 -21.132812 23.601562 -21.179688 23.601562 -21.179688 C 23.601562 -21.265625 23.601562 -21.355469 23.601562 -21.441406 C 23.511719 -26.152344 20.78125 -30.777344 12.902344 -30.777344 L 3.039062 -30.777344 C 2.554688 -30.777344 2.15625 -30.378906 2.203125 -29.894531 C 2.246094 -28.003906 2.378906 -23.070312 2.378906 -15.410156 C 2.378906 -7.75 2.246094 -2.773438 2.203125 -0.878906 C 2.15625 -0.394531 2.554688 0.0429688 3.039062 0.0429688 L 12.902344 0.0429688 C 20.824219 0.0429688 23.601562 -3.566406 23.601562 -9.203125 C 23.601562 -11.050781 23.421875 -12.328125 23.421875 -15.320312 C 23.421875 -18.140625 23.601562 -19.417969 23.601562 -21.132812 Z M 12.8125 -4.625 L 9.773438 -4.625 C 9.335938 -4.625 8.9375 -5.019531 8.9375 -5.503906 C 8.894531 -7.96875 8.851562 -11.316406 8.851562 -15.410156 C 8.851562 -19.503906 8.894531 -22.808594 8.9375 -25.273438 C 8.9375 -25.757812 9.335938 -26.152344 9.773438 -26.152344 L 12.988281 -26.152344 C 16.644531 -26.152344 16.6875 -22.191406 16.6875 -21.132812 L 16.6875 -9.203125 C 16.6875 -6.957031 16.289062 -4.625 12.8125 -4.625 Z M 12.8125 -4.625 "/></g></g></g><g fill="#ffffff" fill-opacity="1"><g transform="translate(261.939568, 227.504635)"><g><path d="M 9.113281 -22.324219 C 9.113281 -24.523438 9.511719 -26.59375 12.988281 -26.59375 C 15.984375 -26.59375 16.554688 -23.90625 16.6875 -22.410156 C 16.730469 -21.925781 17.082031 -21.574219 17.523438 -21.574219 L 22.71875 -21.574219 C 23.246094 -21.574219 23.644531 -22.015625 23.601562 -22.542969 C 23.292969 -27.035156 20.472656 -31.261719 12.902344 -31.261719 C 4.976562 -31.261719 2.203125 -27.914062 2.203125 -22.324219 C 2.203125 -11.402344 16.996094 -14.089844 16.996094 -8.453125 C 16.996094 -6.253906 16.644531 -4.183594 13.121094 -4.183594 C 10.125 -4.183594 9.203125 -6.824219 9.113281 -8.367188 C 9.070312 -8.851562 8.71875 -9.203125 8.234375 -9.203125 L 3.039062 -9.203125 C 2.554688 -9.203125 2.15625 -8.761719 2.203125 -8.234375 C 2.507812 -3.742188 5.679688 0.484375 13.207031 0.484375 C 21.179688 0.484375 23.953125 -2.863281 23.953125 -8.453125 C 23.953125 -19.503906 9.113281 -16.820312 9.113281 -22.324219 Z M 9.113281 -22.324219 "/></g></g></g><g fill="#ffffff" fill-opacity="1"><g transform="translate(125.431299, 304.616086)"><g><path d="M 9.070312 -30.777344 L 3.039062 -30.777344 C 2.554688 -30.777344 2.15625 -30.378906 2.203125 -29.894531 C 2.246094 -28.003906 2.378906 -23.070312 2.378906 -15.410156 C 2.378906 -7.75 2.246094 -2.773438 2.203125 -0.878906 C 2.15625 -0.394531 2.554688 0.0429688 3.039062 0.0429688 L 8.191406 0.0429688 C 8.671875 0.0429688 9.070312 -0.394531 9.027344 -0.878906 C 8.980469 -2.507812 8.894531 -6.339844 8.851562 -12.195312 C 8.851562 -12.679688 9.246094 -13.078125 9.730469 -13.078125 L 18.976562 -13.078125 C 19.460938 -13.078125 19.855469 -13.429688 19.855469 -13.914062 L 19.855469 -16.863281 C 19.855469 -17.347656 19.460938 -17.699219 18.976562 -17.699219 L 9.730469 -17.699219 C 9.246094 -17.699219 8.851562 -18.097656 8.851562 -18.582031 C 8.851562 -21.265625 8.894531 -23.46875 8.9375 -25.273438 C 8.9375 -25.757812 9.335938 -26.152344 9.773438 -26.152344 L 21.308594 -26.152344 C 21.792969 -26.152344 22.191406 -26.503906 22.191406 -26.988281 L 22.191406 -29.941406 C 22.191406 -30.425781 21.792969 -30.777344 21.308594 -30.777344 Z M 9.070312 -30.777344 "/></g></g></g><g fill="#ffffff" fill-opacity="1"><g transform="translate(149.866767, 304.616086)"><g><path d="M 8.71875 -5.503906 C 8.804688 -15.542969 9.027344 -26.726562 9.113281 -29.894531 C 9.113281 -30.378906 8.71875 -30.777344 8.234375 -30.777344 L 3.039062 -30.777344 C 2.554688 -30.777344 2.203125 -30.425781 2.203125 -29.941406 L 2.203125 -0.835938 C 2.203125 -0.351562 2.554688 0 3.039062 0 L 18.183594 0 C 18.667969 0 19.019531 -0.351562 19.019531 -0.835938 L 19.019531 -3.785156 C 19.019531 -4.269531 18.667969 -4.625 18.183594 -4.625 L 9.597656 -4.625 C 9.113281 -4.625 8.71875 -5.019531 8.71875 -5.503906 Z M 8.71875 -5.503906 "/></g></g></g><g fill="#ffffff" fill-opacity="1"><g transform="translate(170.912086, 304.616086)"><g><path d="M 19.945312 -21.398438 C 21.664062 -25.316406 22.984375 -28.089844 23.730469 -29.542969 C 23.996094 -30.117188 23.554688 -30.777344 22.9375 -30.777344 L 18.050781 -30.777344 C 17.65625 -30.777344 17.304688 -30.554688 17.214844 -30.160156 C 16.863281 -28.972656 15.894531 -25.976562 14.265625 -21.398438 C 13.871094 -20.386719 13.515625 -19.417969 13.207031 -18.582031 C 13.121094 -18.273438 12.679688 -18.273438 12.546875 -18.582031 C 12.238281 -19.417969 11.886719 -20.386719 11.492188 -21.398438 C 9.863281 -25.976562 8.894531 -28.972656 8.542969 -30.160156 C 8.453125 -30.554688 8.101562 -30.777344 7.707031 -30.777344 L 2.816406 -30.777344 C 2.203125 -30.777344 1.761719 -30.117188 2.070312 -29.542969 C 2.773438 -28.089844 4.09375 -25.316406 5.8125 -21.398438 C 7.574219 -17.390625 8.71875 -14.617188 9.246094 -13.164062 C 9.421875 -12.722656 9.511719 -12.285156 9.554688 -11.800781 C 9.597656 -10.65625 9.640625 -9.027344 9.640625 -6.957031 C 9.640625 -4.050781 9.554688 -1.980469 9.464844 -0.878906 C 9.464844 -0.394531 9.863281 0 10.347656 0 L 15.410156 0 C 15.894531 0 16.289062 -0.394531 16.289062 -0.878906 C 16.203125 -1.980469 16.113281 -4.050781 16.113281 -6.957031 C 16.113281 -9.027344 16.160156 -10.65625 16.203125 -11.800781 C 16.246094 -12.285156 16.335938 -12.722656 16.511719 -13.164062 C 17.082031 -14.617188 18.183594 -17.390625 19.945312 -21.398438 Z M 19.945312 -21.398438 "/></g></g></g><g fill="#ffffff" fill-opacity="1"><g transform="translate(196.756445, 304.616086)"><g><path d="M 12.019531 -17.566406 C 11.050781 -17.523438 9.421875 -17.4375 7.574219 -17.4375 C 5.679688 -17.4375 4.050781 -17.523438 3.125 -17.566406 C 2.597656 -17.613281 2.203125 -17.214844 2.203125 -16.730469 L 2.203125 -13.957031 C 2.203125 -13.429688 2.597656 -13.03125 3.125 -13.078125 C 4.050781 -13.164062 5.679688 -13.253906 7.574219 -13.253906 C 9.421875 -13.253906 11.050781 -13.164062 12.019531 -13.078125 C 12.503906 -13.03125 12.945312 -13.429688 12.945312 -13.957031 L 12.945312 -16.730469 C 12.945312 -17.214844 12.503906 -17.613281 12.019531 -17.566406 Z M 12.019531 -17.566406 "/></g></g></g><g fill="#ffffff" fill-opacity="1"><g transform="translate(211.946065, 304.616086)"><g><path d="M 9.027344 -0.878906 C 8.980469 -2.773438 8.851562 -7.75 8.851562 -15.410156 C 8.851562 -23.070312 8.980469 -28.003906 9.027344 -29.894531 C 9.070312 -30.378906 8.671875 -30.820312 8.191406 -30.820312 L 3.039062 -30.820312 C 2.554688 -30.820312 2.15625 -30.378906 2.203125 -29.894531 C 2.246094 -28.003906 2.378906 -23.070312 2.378906 -15.410156 C 2.378906 -7.75 2.246094 -2.773438 2.203125 -0.878906 C 2.15625 -0.394531 2.554688 0 3.039062 0 L 8.191406 0 C 8.671875 0 9.070312 -0.394531 9.027344 -0.878906 Z M 9.027344 -0.878906 "/></g></g></g><g fill="#ffffff" fill-opacity="1"><g transform="translate(223.217199, 304.616086)"><g><path d="M 23.863281 -15.410156 C 23.863281 -23.070312 24.039062 -28.003906 24.085938 -29.894531 C 24.128906 -30.378906 23.730469 -30.820312 23.203125 -30.820312 L 18.097656 -30.820312 C 17.613281 -30.820312 17.214844 -30.378906 17.214844 -29.894531 C 17.304688 -28.003906 17.4375 -23.070312 17.4375 -15.410156 C 17.4375 -13.164062 17.4375 -11.140625 17.390625 -9.378906 C 17.390625 -8.9375 16.773438 -8.851562 16.6875 -9.289062 C 16.335938 -11.09375 15.984375 -13.121094 15.585938 -15.410156 C 14.175781 -23.246094 13.429688 -28.265625 13.164062 -30.070312 C 13.121094 -30.46875 12.722656 -30.777344 12.328125 -30.777344 L 9.070312 -30.777344 L 9.070312 -30.820312 L 3.039062 -30.820312 C 2.554688 -30.820312 2.15625 -30.378906 2.203125 -29.894531 C 2.246094 -28.003906 2.378906 -23.070312 2.378906 -15.410156 C 2.378906 -7.75 2.246094 -2.773438 2.203125 -0.878906 C 2.15625 -0.394531 2.554688 0 3.039062 0 L 8.191406 0 C 8.671875 0 9.070312 -0.394531 9.027344 -0.878906 C 8.980469 -2.773438 8.851562 -7.75 8.851562 -15.410156 C 8.851562 -17.65625 8.851562 -19.636719 8.851562 -21.398438 C 8.894531 -21.839844 9.511719 -21.925781 9.597656 -21.488281 C 9.90625 -19.679688 10.304688 -17.65625 10.699219 -15.410156 C 12.109375 -7.527344 12.855469 -2.507812 13.121094 -0.703125 C 13.164062 -0.308594 13.515625 0 13.957031 0 L 23.203125 0 C 23.730469 0 24.128906 -0.394531 24.085938 -0.878906 C 24.039062 -2.773438 23.863281 -7.75 23.863281 -15.410156 Z M 23.863281 -15.410156 "/></g></g></g></svg>